<svg width="16" height="16" viewBox="0 0 16 16" fill="none" xmlns="http://www.w3.org/2000/svg">
<path d="M8 13.8667C11.2401 13.8667 13.8667 11.2401 13.8667 8C13.8667 4.75993 11.2401 2.13333 8 2.13333C4.75993 2.13333 2.13333 4.75993 2.13333 8C2.13333 11.2401 4.75993 13.8667 8 13.8667Z" stroke="#290852" stroke-linecap="round" stroke-linejoin="round"/>
<path d="M3.76978 12.0574C3.83863 12.0144 3.91082 11.977 3.98567 11.9455L5.75897 11.0945C6.061 11.001 6.32628 10.8155 6.51771 10.5639C6.6017 10.4535 6.66963 10.3329 6.72024 10.2055" stroke="#290852" stroke-linecap="round" stroke-linejoin="round"/>
<path d="M12.2302 12.0582C12.1614 12.0152 12.0892 11.9778 12.0143 11.9463L10.2426 11.0953C9.8022 10.8634 9.46891 10.6112 9.29942 10.2636" stroke="#290852" stroke-linecap="round" stroke-linejoin="round"/>
<path d="M8 10.3467C9.51203 10.3467 10.7378 9.12092 10.7378 7.60889C10.7378 6.09685 9.51203 4.87111 8 4.87111C6.48797 4.87111 5.26222 6.09685 5.26222 7.60889C5.26222 9.12092 6.48797 10.3467 8 10.3467Z" stroke="#290852" stroke-linecap="round" stroke-linejoin="round"/>
</svg>
