<svg width="16" height="16" viewBox="0 0 16 16" fill="none" xmlns="http://www.w3.org/2000/svg">
<g clip-path="url(#clip0_1821_200270)">
<path d="M5.85893 8.3914C6.28269 8.3914 6.69693 8.51706 7.04927 8.75249C7.40161 8.98791 7.67622 9.32253 7.83839 9.71403C8.00055 10.1055 8.04298 10.5363 7.96031 10.9519C7.87764 11.3676 7.67358 11.7493 7.37394 12.049C7.0743 12.3486 6.69254 12.5527 6.27692 12.6353C5.86131 12.718 5.43052 12.6756 5.03902 12.5134C4.64752 12.3512 4.3129 12.0766 4.07747 11.7243C3.84205 11.3719 3.71639 10.9577 3.71639 10.5339V10.1735" stroke="#290852" stroke-linecap="round" stroke-linejoin="round"/>
<path d="M10.1463 8.3914C9.72255 8.3914 9.30831 8.51706 8.95597 8.75249C8.60363 8.98791 8.32901 9.32253 8.16685 9.71403C8.00469 10.1055 7.96226 10.5363 8.04493 10.9519C8.1276 11.3676 8.33166 11.7493 8.6313 12.049C8.93094 12.3486 9.3127 12.5527 9.72831 12.6353C10.1439 12.718 10.5747 12.6756 10.9662 12.5134C11.3577 12.3512 11.6923 12.0766 11.9278 11.7243C12.1632 11.3719 12.2888 10.9577 12.2888 10.5339V10.1735" stroke="#290852" stroke-linecap="round" stroke-linejoin="round"/>
<path d="M5.00187 10.3197H4.57336C3.96645 10.3203 3.37892 10.1061 2.91473 9.7151C2.45054 9.32411 2.13963 8.78153 2.03702 8.18336C1.93441 7.58518 2.04671 6.97 2.35405 6.44666C2.66139 5.92333 3.14395 5.52559 3.71635 5.32383V4.96335C3.71635 4.39511 3.94208 3.85014 4.34388 3.44834C4.74569 3.04653 5.29065 2.8208 5.85889 2.8208C6.42713 2.8208 6.97209 3.04653 7.3739 3.44834C7.7757 3.85014 8.00143 4.39511 8.00143 4.96335V10.534" stroke="#290852" stroke-linecap="round" stroke-linejoin="round"/>
<path d="M11.0033 10.3197H11.4318C12.0387 10.3203 12.6263 10.1061 13.0905 9.7151C13.5546 9.32411 13.8656 8.78153 13.9682 8.18336C14.0708 7.58519 13.9585 6.97 13.6511 6.44666C13.3438 5.92333 12.8612 5.52559 12.2888 5.32383V4.96335C12.2888 4.39511 12.0631 3.85014 11.6613 3.44834C11.2595 3.04653 10.7145 2.8208 10.1463 2.8208C9.57806 2.8208 9.0331 3.04653 8.63129 3.44834C8.22949 3.85014 8.00376 4.39511 8.00376 4.96335" stroke="#290852" stroke-linecap="round" stroke-linejoin="round"/>
<path d="M11.8597 7.10582H11.6454C11.2477 7.10582 10.8662 6.94781 10.5849 6.66654C10.3036 6.38528 10.1456 6.00381 10.1456 5.60604V5.39178" stroke="#290852" stroke-linecap="round" stroke-linejoin="round"/>
<path d="M4.14548 7.10582H4.35974C4.75751 7.10582 5.13898 6.94781 5.42024 6.66654C5.70151 6.38528 5.85952 6.00381 5.85952 5.60604V5.39178" stroke="#290852" stroke-linecap="round" stroke-linejoin="round"/>
</g>
<defs>
<clipPath id="clip0_1821_200270">
<rect width="16" height="16" fill="white"/>
</clipPath>
</defs>
</svg>
