<svg width="16" height="16" viewBox="0 0 16 16" fill="none" xmlns="http://www.w3.org/2000/svg">
<path d="M2.45858 2.46016L4.78241 4.78399" stroke="#290852" stroke-linecap="round" stroke-linejoin="round"/>
<path d="M12.8253 13.4467C12.9123 13.4927 13.0116 13.5095 13.1089 13.4948C13.2061 13.4802 13.2961 13.4347 13.3656 13.3652C13.4351 13.2957 13.4805 13.2057 13.4952 13.1085C13.5099 13.0113 13.493 12.9119 13.4471 12.8249C13.4471 12.8249 11.664 7.06196 9.34014 4.78415C8.73602 4.18004 7.91667 3.84065 7.06233 3.84065C6.20798 3.84065 5.38863 4.18004 4.78451 4.78415C4.1804 5.38827 3.84102 6.20762 3.84102 7.06196C3.84102 7.91631 4.1804 8.73566 4.78451 9.33978C7.06233 11.6636 12.8253 13.4467 12.8253 13.4467Z" stroke="#290852" stroke-linecap="round" stroke-linejoin="round"/>
<path d="M2 4.76099H4.80757" stroke="#290852" stroke-linecap="round" stroke-linejoin="round"/>
<path d="M4.76084 4.80758V2" stroke="#290852" stroke-linecap="round" stroke-linejoin="round"/>
<path d="M8.90231 9.36263L7.19395 11.071" stroke="#290852" stroke-linecap="round" stroke-linejoin="round"/>
<path d="M9.34091 4.78391L7.0631 7.06172" stroke="#290852" stroke-linecap="round" stroke-linejoin="round"/>
</svg>
