<svg width="16" height="16" viewBox="0 0 16 16" fill="none" xmlns="http://www.w3.org/2000/svg">
<path d="M5.30779 14.0015H9.92321" stroke="#290852" stroke-linecap="round" stroke-linejoin="round"/>
<path d="M4.77124 10.2514C4.22257 9.82281 3.77815 9.27543 3.47139 8.65041C3.16462 8.02539 3.00348 7.33898 3.00007 6.64274C2.98622 4.14118 5.00317 2.05905 7.50415 2.00135C8.4734 1.97788 9.42542 2.26022 10.2252 2.80833C11.0249 3.35643 11.6317 4.14246 11.9595 5.05489C12.2873 5.96732 12.3195 6.95981 12.0514 7.89155C11.7834 8.82328 11.2287 9.64694 10.4661 10.2457C10.2979 10.3761 10.1616 10.5431 10.0675 10.734C9.97348 10.9249 9.92412 11.1348 9.92321 11.3476V11.6938C9.92321 11.8162 9.87459 11.9336 9.78803 12.0201C9.70147 12.1067 9.58408 12.1553 9.46167 12.1553H5.76933C5.64692 12.1553 5.52952 12.1067 5.44297 12.0201C5.35641 11.9336 5.30778 11.8162 5.30778 11.6938V11.3476C5.30756 11.1361 5.25913 10.9275 5.16615 10.7375C5.07318 10.5476 4.93812 10.3813 4.77124 10.2514Z" stroke="#290852" stroke-linecap="round" stroke-linejoin="round"/>
<path d="M8.07704 3.84752C9.2309 4.04194 10.1892 5.00138 10.3848 6.15523" stroke="#290852" stroke-linecap="round" stroke-linejoin="round"/>
</svg>
