<svg width="16" height="16" viewBox="0 0 16 16" fill="none" xmlns="http://www.w3.org/2000/svg">
<path d="M11.1247 3.00552C9.93608 2.26992 8.52264 1.98608 7.14217 2.20576C5.7617 2.42543 4.50618 3.13399 3.60458 4.2022C2.70298 5.27041 2.21538 6.62711 2.2307 8.02487C2.24603 9.42262 2.76325 10.7683 3.68804 11.8165C4.61284 12.8647 5.88359 13.5456 7.26854 13.7349C8.6535 13.9243 10.0604 13.6095 11.2326 12.8481C12.4048 12.0866 13.2643 10.9291 13.6543 9.58679C13.9108 8.70381 13.9529 7.77952 13.7861 6.88856M13.7861 6.88856C13.6994 6.42506 13.6543 6.37168 13.6543 6.37168L13.7861 6.88856Z" stroke="#290852" stroke-linecap="round" stroke-linejoin="round"/>
<path d="M5.68829 7.83888L7.55258 9.77176L12.9124 4.21474" stroke="#290852" stroke-linecap="round" stroke-linejoin="round"/>
</svg>
