<svg width="16" height="16" viewBox="0 0 16 16" fill="none" xmlns="http://www.w3.org/2000/svg">
<path d="M2.02719 12.8972L5.04649 4.59545C5.07217 4.52452 5.11534 4.46123 5.172 4.41144C5.22866 4.36165 5.29697 4.32697 5.37061 4.31063C5.44424 4.29429 5.52082 4.2968 5.59322 4.31794C5.66562 4.33909 5.73152 4.37817 5.78479 4.43157L11.0678 9.71463C11.1211 9.76795 11.16 9.83384 11.1811 9.90621C11.2021 9.97857 11.2045 10.0551 11.1881 10.1286C11.1717 10.2022 11.137 10.2704 11.0873 10.327C11.0375 10.3836 10.9743 10.4267 10.9034 10.4523L2.60161 13.4716C2.52144 13.5009 2.43457 13.5067 2.35123 13.4883C2.26789 13.4699 2.19155 13.428 2.13119 13.3676C2.07084 13.3073 2.02899 13.231 2.01056 13.1476C1.99214 13.0643 1.99791 12.9774 2.02719 12.8972Z" stroke="#290852" stroke-linecap="round" stroke-linejoin="round"/>
<path d="M9.81365 5.54396C9.81365 5.54396 10.0147 4.17871 11.38 4.37979C12.7453 4.58088 12.9463 3.21562 12.9463 3.21562" stroke="#290852" stroke-linecap="round" stroke-linejoin="round"/>
<path d="M8.3 3V4.37999" stroke="#290852" stroke-linecap="round" stroke-linejoin="round"/>
<path d="M12.0002 7.42677L13.4522 7.51495" stroke="#290852" stroke-linecap="round" stroke-linejoin="round"/>
<path d="M4.18858 6.95035L8.54819 11.31" stroke="#290852" stroke-linecap="round" stroke-linejoin="round"/>
<path d="M5.51293 12.4138L3.0853 9.98615" stroke="#290852" stroke-linecap="round" stroke-linejoin="round"/>
</svg>
