<?xml version="1.0" encoding="utf-8"?>
<!-- Generator: Adobe Illustrator 27.9.0, SVG Export Plug-In . SVG Version: 6.00 Build 0)  -->
<svg version="1.1" id="Layer_1" xmlns="http://www.w3.org/2000/svg" xmlns:xlink="http://www.w3.org/1999/xlink" x="0px" y="0px"
	 viewBox="0 0 100 100" style="enable-background:new 0 0 100 100;" xml:space="preserve">
<style type="text/css">
	.st0{fill:#290852;}
	.st1{fill:url(#SVGID_1_);}
	.st2{fill:url(#SVGID_00000182498979788954542900000013242863938280388267_);}
	.st3{fill:url(#SVGID_00000005228536887245951340000013079222377398775962_);}
	.st4{fill:url(#SVGID_00000145049081571754514350000000574155412497734586_);}
</style>
<g>
	<path class="st0" d="M43.8,72.7c0,0.2,0,0.4,0,0.6c0.3,1.5,0.5,3,0.8,4.5c0.1,0.9,0.2,1.8,0.4,2.7c0.1,0.8,0.3,1.6,0.4,2.4
		c0.2,0.9,0.3,1.8,0.5,2.7c0.1,0.5,0.2,1,0.3,1.5c0.1,0.6,0,1.1,0.3,1.6c0.1,0.1,0,0.3,0.1,0.4c0.2,1.6,0.4,3.1,0.5,4.7
		c0,0.4,0,0.7,0,1.1c1-0.3,2.1-0.2,3.1-0.2c0.7,0,1.3-0.1,2-0.2c-0.1-1.1-0.2-2.2-0.2-3.3c0-1.2-0.2-2.4,0.1-3.6c0-0.1,0-0.3,0-0.4
		c-0.1-0.8,0-1.7,0-2.5c0-0.8,0.3-1.6,0.1-2.4c0-0.3,0-0.5,0-0.8c0.1-1,0.2-2,0.3-3c0.1-0.7,0.3-1.4,0.5-2c0-0.1,0.2-0.3,0.3-0.4
		c0.1,0.1,0.2,0.2,0.2,0.3c0.2,0.6,0.5,1.2,0.5,1.8c0,1,0.1,2,0.1,3c0,0.1,0,0.2,0,0.2c-0.1,0.9-0.1,1.8-0.2,2.7
		c0,0.7-0.1,1.4-0.1,2c-0.1,1.6-0.1,3.1-0.1,4.7c0,0.7,0.2,1.5,0.2,2.2c0,0.4,0,0.7,0.1,1.1c0.4,0,0.7,0,1.1,0c0.1,0,0.2,0,0.3,0
		c0.4,0,0.9,0,1.3-0.1c0.9-0.1,1.7,0,2.6,0c0.5,0,1-0.1,1.5-0.1c0.4,0,0.8,0.1,1.2,0.1c0.7,0,1.5,0,2.3-0.1
		c-0.2-0.1-0.4-0.3-0.6-0.4c-0.6-0.4-1.2-0.8-1.6-1.5c-0.3-0.4-0.5-0.8-0.4-1.2c0-0.1,0-0.2,0-0.3c-0.2-1.3-0.2-2.5-0.1-3.8
		c0-0.6,0-1.2-0.1-1.8c0-0.1,0-0.3,0-0.4c0-0.8,0-1.5,0-2.3c0-0.9,0-1.8,0-2.7c0-1.1-0.1-2.2-0.1-3.4c0-0.8,0.1-1.7,0.1-2.5
		c0-0.5-0.1-1-0.1-1.5c0-0.7,0-1.4,0.1-2.1c0-0.6,0-1.2,0-1.8c0-0.3,0-0.7,0-1c0-0.8,0-1.5-0.1-2.2c0-0.4-0.2-0.9-0.3-1.3
		c-0.1-0.6-0.4-1.2-0.7-1.7c-0.3-0.5-0.3-1,0-1.5c0.3-0.5,0.9-0.7,1.5-0.4c0.2,0.1,0.3,0.2,0.5,0.3c0.4,0.3,0.8,0.7,1.2,1.1
		c0.1,0.1,0.1,0.3,0.2,0.4c0.1,0.1,0.2,0.3,0.3,0.4c0.3,0.3,0.7,0.7,1,1c0.1,0.1,0.2,0.2,0.2,0.2c0.2,0.2,0.4,0.5,0.6,0.7
		c0.2,0.2,0.4,0.4,0.6,0.6c0.1,0.1,0.1,0.1,0.2,0.1c0.9,1.2,2.1,2,3,3.1c0.1,0.1,0.2,0.2,0.2,0.2c0.3,0.2,0.6,0.4,0.5,0.8
		c0.5,0.2,1,0.4,1.1,1c0,0.2,0.2,0.3,0.4,0.4c0.3,0.4,0.7,0.7,1,1.1c0.1,0.1,0.2,0.1,0.2,0.2c0,0.3,0.3,0.5,0.5,0.7
		c0.3,0.4,0.6,0.9,0.9,1.3c0,0.1,0.1,0.1,0.1,0.2c0.6,0.6,1.3,1.2,1.9,1.8c0.8-0.4,1.4-1,1.9-1.6c0.4-0.5,0.9-0.9,1.4-1.3
		c0.6-0.5,1.2-1,1.8-1.6c0.7-0.7,1.4-1.5,2.1-2.3c0.3-0.3,0.6-0.6,0.9-0.8c0.2-0.2,0.3-0.4,0.5-0.6c-0.4,0.1-0.8,0.3-1.2,0.4
		c-0.8,0.2-1.6,0.6-2.3,1c-0.7,0.4-1.5,0.4-2.2,0.4c-0.7,0-1.2-0.5-1.6-1c-0.4-0.4-0.8-0.8-1.1-1.2c-0.4-0.4-0.7-0.8-1-1.2
		c-0.4-0.5-0.9-1-1.3-1.6c-0.1-0.1-0.2-0.2-0.2-0.3c-0.3-0.8-0.9-1.4-1.5-2.1c-0.6-0.8-1.1-1.5-1.7-2.3c-0.4-0.6-0.9-1.1-1.3-1.7
		c-0.2-0.3-0.3-0.6-0.5-0.9c0-0.1-0.1-0.1-0.1-0.2c-0.6-0.8-1.1-1.5-1.7-2.2c-0.3-0.4-0.7-0.7-1-1.1c-0.3-0.4-0.6-0.7-0.9-1.1
		c-0.4-0.6,0-1.8,0.9-1.9c0.2,0,0.5,0.1,0.7,0.2c0.3,0.2,0.5,0.6,0.9,0.8c0.1,0,0.1,0.2,0.2,0.3c0.1,0.2,0.2,0.4,0.4,0.5
		c0.7,0.6,1.2,1.4,1.7,2.1c0.1,0.2,0.2,0.4,0.3,0.6c0.1,0.1,0.1,0.3,0.2,0.4c0.6,0.5,1,1.1,1.3,1.7c0.2,0.4,0.6,0.8,0.9,1.1
		c0.5,0.6,1,1.2,1.4,1.8c0.3,0.4,0.6,0.9,0.8,1.3c0.1,0.2,0.2,0.4,0.4,0.6c0.1,0.1,0.3,0.3,0.4,0.4c0.2,0.4,0.5,0.7,0.8,1.1
		c0.3,0.3,0.6,0.7,0.9,1.1c0.4,0.5,0.8,1,1.3,1.5c0,0,0,0,0,0c0.5,0.4,1,0.7,1.4,1.1c0.2,0.1,0.3,0.1,0.5,0c0.6-0.3,1.2-0.5,1.9-0.8
		c0.6-0.2,1.1-0.5,1.7-0.7c0.8-0.2,1.5-0.5,2.3-0.6c0.5-0.1,1-0.2,1.4-0.4c0.3-0.2,0.5-0.3,0.9-0.2c0.3,0.1,0.4,0.2,0.4,0.5
		c0,0.7-0.1,1.3-0.8,1.7c-0.4,0.2-0.7,0.5-0.9,0.9c-0.4,0.6-0.9,1.2-1.4,1.7c-1,1-2,2-2.9,3c-0.9,0.9-1.8,1.8-2.7,2.6
		c-0.8,0.7-1.5,1.5-2.3,2.2c-0.3,0.3-0.6,0.5-1,0.7c-0.3,0.2-0.7,0.3-1,0.2c-0.2,0-0.3-0.1-0.5-0.1c-0.4,0-0.8-0.2-1.1-0.4
		c-0.5-0.5-1-0.9-1.3-1.5c-0.3-0.5-0.7-0.8-1-1.3c-0.5-0.7-1-1.4-1.6-2.1c-0.1-0.2-0.3-0.4-0.4-0.5c-0.4-0.3-0.7-0.6-0.9-1.1
		c0,0,0-0.1-0.1-0.1c-0.5-0.2-0.7-0.6-1.1-1c-0.8-0.7-1.5-1.5-2.3-2.2c-0.4-0.4-0.7-0.8-1-1.2c-0.3-0.3-0.6-0.5-0.9-0.8
		c-0.2-0.2-0.3-0.3-0.5-0.5c0,0-0.1,0-0.1,0c0,0.4,0,0.9,0,1.3c0.1,0.9,0,1.8,0,2.7c0,1-0.1,2-0.1,3c0,1.1,0,2.3,0,3.4s0,2.3,0,3.4
		c0,0.8,0.1,1.6,0.1,2.3c0,0.6,0,1.3,0,1.9c0,1.1,0,2.1,0,3.2c0,1,0,2.1,0,3.1c0,0.5,0.3,0.9,0.6,1.1c0.6,0.5,1.3,0.9,1.9,1.3
		c0.4,0.3,0.9,0.6,1.2,1c0.3,0.3,0.6,0.8,0.8,1.2c1.1,0,2.1,0.1,3.2-0.1c0.1,0,0.1,0,0.2,0c1.1,0,2.2,0,3.3,0c0.3,0,0.7,0,1,0
		c0.3,0,0.7,0.1,1,0.1c0.2,0,0.4,0,0.6,0c0.7-0.3,1.4-0.2,2.1-0.1c0.2,0,0.3,0,0.5,0c0.7-0.2,1.4,0,2.1-0.1c0.8,0,1.5,0.1,2.3,0.2
		c0.4,0,0.9-0.1,1.3-0.1c0.2,0,0.4,0.1,0.5,0.2c0.1,0.1,0.2,0.3,0.2,0.5c0,0.9-0.5,1.4-1.4,1.5c0,0-0.1,0-0.1,0c-1.1,0-2.1,0-3.1,0
		c-0.5,0-1.1,0.1-1.6,0.1c-0.2,0-0.4,0-0.6,0c-0.2,0-0.4,0-0.6,0c-0.5,0-0.9,0.1-1.4,0.1c-0.1,0-0.3,0-0.4,0
		c-0.4-0.2-0.7-0.1-1.1-0.1c-0.4,0.1-0.9,0.1-1.3,0.1c-1,0-1.9,0-2.8,0.1c-1,0.1-2,0-2.9,0c-0.4,0-0.9,0.1-1.3,0.1
		c-0.4,0-0.8,0-1.2-0.1c-0.2,0-0.4,0-0.6,0c-0.2,0-0.5,0-0.7,0c-0.1,0-0.2,0-0.3,0c-0.7,0.3-1.4,0.2-2.1,0.2c-0.4,0-0.7,0.1-1.1,0.1
		c-0.6,0-1.2,0-1.8,0c-1.1,0-2.2,0.1-3.3,0.1c-0.6,0-1.2,0-1.7,0.1c-0.4,0-0.8,0.1-1.2,0c-1.4-0.1-2.8,0.1-4.1,0.1
		c-0.7,0-1.3,0.1-2,0.1c-0.3,0-0.5,0-0.8,0c-0.1,0-0.3,0-0.4,0c-0.6,0.1-1.3,0.2-1.9,0.2c-0.5,0-1.1-0.1-1.6-0.1
		c-0.3,0-0.6,0.1-0.9,0.1c-1,0-2,0.1-3,0.1c-0.5,0-1,0.1-1.5,0.1c-0.8,0-1.5,0-2.3,0.1c-0.4,0-0.7,0-1.1,0c-0.5,0-1,0-1.5,0
		c-0.6,0-1.2,0.1-1.8,0.1c-0.7,0-1.4,0-2.1,0c-0.5,0-1,0-1.4,0.1c-0.1,0-0.2,0-0.3,0c-0.7-0.3-1.4,0-2.2,0c-0.8,0-1.6,0-2.3,0
		c-0.6,0-1.2,0-1.8,0.1c-0.8,0-1.7,0.1-2.5,0.1c-0.6,0.1-1.1,0-1.7-0.1c-0.3,0-0.6,0-0.9,0.1c-0.5,0.1-1,0-1.5,0
		c-0.4,0-0.9-0.1-1.3-0.2c-0.5-0.1-1-0.1-1.5-0.3c-0.4-0.1-0.5-0.5-0.1-0.7c0.3-0.2,0.6-0.4,1-0.5c0.7-0.2,1.4-0.3,2-0.4
		c0.5-0.1,0.9-0.1,1.4-0.2c0.3,0,0.5,0,0.9,0c0.1-0.3,0.2-0.6,0.3-0.9c0.6-1.9,1.2-3.7,1.7-5.6c0.4-1.4,0.7-2.8,1-4.2
		c0.4-1.5,0.7-3,1-4.5c0.3-1.5,0.6-2.9,0.8-4.4c0.2-1.1,0.5-2.1,0.9-3.1c-0.7-0.2-1.3-0.3-2-0.5c-0.1,0-0.2-0.1-0.3-0.2
		c-0.2-0.1-0.4-0.2-0.5-0.3c-0.3-0.2-0.7-0.4-0.9-0.6c-0.5-0.5-0.9-1-1.1-1.7c-0.2-0.9-0.1-1.6,0.2-2.4c0.5-1.3,1.3-2.4,2.4-3.4
		c0.4-0.3,0.8-0.6,1.2-0.8c0.8-0.4,1.6-0.9,2.4-1.3c0.5-0.2,1.1-0.4,1.6-0.4c0.5-0.1,0.8,0.2,0.8,0.7c0,0.7-0.3,1.2-1.1,1.4
		c-0.8,0.3-1.7,0.6-2.5,1C21,65.2,20,66,19.3,67.2c-0.2,0.3-0.3,0.7-0.3,1.1c-0.1,0.4,0.2,0.7,0.5,1c0.3,0.3,0.7,0.6,1,0.8
		c0.3,0.2,0.7,0.3,1.1,0.4c0.6,0.2,1.3,0.4,1.9,0.5c0.4,0.1,0.8,0,1.2,0c0.7,0,1.3,0.1,1.9,0.2c0.2,0,0.3,0,0.5,0c0.4,0,0.7,0,1.1,0
		c0.6,0,1.2,0,1.7,0c0.4,0,0.8,0,1.2,0.1c0.5,0.1,1,0.1,1.4,0.1c0.5,0,1,0.1,1.4,0.1c0.2,0,0.4,0,0.7,0c0.2,0,0.4,0,0.6,0
		c0.4,0.1,0.8,0.3,1.2,0c0,0,0.1,0,0.1,0c1,0.2,2,0,3-0.1c0.2,0,0.4-0.1,0.5,0c0.5,0.2,1-0.1,1.4-0.2c0.8-0.1,1.5-0.4,2.2-0.5
		c0.5-0.1,0.8-0.4,1-0.8c0.2-0.5,0.6-0.9,1.2-1c0.5-0.1,0.9,0.2,0.9,0.8c-0.1,0.5-0.3,0.9-0.6,1.3c-0.4,0.6-0.9,1-1.5,1.4
		C44.3,72.5,44.1,72.6,43.8,72.7z M41.3,95.1c0-0.4,0-0.8,0-1.1c0-0.1,0-0.2,0-0.3c0-0.4-0.1-0.8-0.1-1.2c0-0.1,0-0.3,0-0.4
		c-0.1-0.7-0.2-1.5-0.3-2.2c0-0.4-0.1-0.8-0.1-1.2c-0.1-0.5-0.1-1-0.2-1.4c-0.1-0.7-0.2-1.4-0.3-2.1c-0.2-1.3-0.4-2.6-0.5-3.9
		c-0.1-0.7-0.1-1.4-0.2-2.1c-0.1-0.9-0.3-1.9-0.4-2.8c-0.1-0.9-0.2-1.8-0.2-2.7c0,0,0,0,0,0c-0.5,0-0.9,0-1.4,0.1
		c-0.5,0.1-1-0.2-1.4,0c-0.1,0-0.3,0-0.4,0c-0.3-0.3-0.6-0.1-0.8,0c0,1.4-0.1,2.7-0.1,4c0,1.7,0,3.4,0,5.2c0,1.3-0.2,2.6-0.1,4
		c0,0,0,0.1,0,0.1c0,0.8-0.1,1.5-0.1,2.3c0,1.2-0.1,2.5-0.1,3.7c0,0.7-0.2,1.5,0.2,2.3C36.7,95.2,39,95.2,41.3,95.1z M28.7,95.3
		c0.1-0.5,0.2-0.9,0.2-1.4c0.1-1.2,0.1-2.5,0.3-3.7c0.1-0.7,0-1.4,0-2.1c0-0.8,0-1.6,0-2.4c0.1-1.2,0.3-2.3,0.4-3.5
		c0-0.3,0-0.6,0-0.8c0-0.9,0.1-1.7,0.1-2.6c0-1,0-1.9,0-2.9c0-0.2,0-0.4,0.1-0.6c0.2-0.6,0.1-1.2,0-1.9c-0.6,0-1.2-0.1-1.7-0.1
		c-0.3,0-0.6,0.1-1,0c-0.3,0-0.4,0.1-0.5,0.3c-0.1,0.5-0.2,1-0.3,1.4c-0.2,0.9-0.3,1.8-0.5,2.7c-0.2,1-0.5,2.1-0.7,3.1
		c-0.2,1.1-0.4,2.2-0.6,3.3c-0.2,0.9-0.4,1.8-0.6,2.7c-0.2,0.7-0.4,1.4-0.6,2.1c-0.2,0.7-0.2,1.5-0.6,2.2c-0.1,0.1,0,0.2,0,0.3
		c-0.1,0.8-0.2,1.5-0.3,2.3c0,0.1,0,0.1,0,0.2c-0.1,0.4-0.2,0.9-0.3,1.3c0.3,0,0.6,0,0.8,0c0.5,0,1.1,0.1,1.6,0c0.6-0.1,1.1,0,1.7,0
		c0.3,0,0.6,0,0.9,0c0.2,0,0.4,0,0.7,0C28,95.3,28.4,95.3,28.7,95.3z M45.2,94.9c-0.1-1-0.2-1.9-0.3-2.9c0-0.7-0.1-1.3-0.3-2
		c0-0.1,0-0.3,0-0.4c0.1-0.4,0-0.8-0.2-1.2c-0.1-0.3-0.2-0.5-0.2-0.8c-0.1-0.6-0.2-1.3-0.3-1.9c-0.2-1.2-0.4-2.4-0.6-3.7
		c-0.1-0.7-0.2-1.4-0.3-2.1c-0.1-0.7-0.3-1.5-0.5-2.2c-0.2-1-0.3-2-0.5-3c-0.1-0.5-0.1-1.1-0.2-1.6c-0.4,0-0.8,0.1-1.2,0.1
		c0,0.2,0,0.3,0,0.3c0.1,1.2,0.3,2.5,0.4,3.7c0.1,1,0.3,2.1,0.4,3.1c0.1,0.7,0.2,1.5,0.3,2.2c0.1,0.7,0.1,1.4,0.2,2.1
		c0.2,1.7,0.5,3.5,0.7,5.2c0.1,0.6,0.1,1.2,0.1,1.8c0,0.4,0.1,0.9,0.1,1.3c0,0.7,0.1,1.3,0.3,1.9C44,95.1,44.6,95,45.2,94.9z
		 M18.2,95.5c0.6,0,1.1,0,1.6,0c0.5,0,0.5,0,0.6-0.5c0.1-0.5,0.1-1,0.3-1.5c0.3-1,0.6-2,0.6-3.1c0-0.2,0.1-0.4,0.2-0.7
		c0.2-0.9,0.5-1.7,0.7-2.5c0.2-1.1,0.4-2.2,0.7-3.3c0.4-1.8,0.7-3.5,1.1-5.3c0.2-1.2,0.5-2.4,0.7-3.6c0.1-0.5,0.2-1,0.3-1.6
		c-0.5-0.1-1-0.2-1.5-0.3c-0.2,1.2-0.4,2.4-0.6,3.6c-0.2,0.9-0.3,1.8-0.5,2.6c-0.2,1.1-0.5,2.1-0.7,3.2c-0.1,0.4-0.1,0.8-0.2,1.1
		c-0.2,0.5-0.3,1.1-0.4,1.7c-0.3,1-0.5,1.9-0.7,2.9c-0.1,0.4-0.3,0.7-0.4,1.1c0,0.5-0.2,1-0.3,1.5c-0.2,1-0.6,1.9-0.8,2.9
		C18.6,94.3,18.4,94.8,18.2,95.5z M32.4,95.3c0-0.1,0-0.2,0-0.3c0-0.7-0.1-1.4-0.1-2.1c0-1.2,0.1-2.3,0.1-3.5c0-0.9,0.1-1.7,0.1-2.6
		c0-0.7,0.1-1.5,0.1-2.2c-0.1-0.7-0.1-1.5,0.1-2.2c0-0.1,0-0.3,0-0.4c0-0.5-0.1-1-0.1-1.5c0-0.9,0.1-1.7,0.1-2.6
		c-0.1-1.1,0-2.3,0.1-3.4c0.1-0.8-0.1-1.1-0.9-1c-0.1,0-0.1,0-0.2,0.1c0,0.3-0.1,0.6-0.1,1c0,0.9,0,1.8,0,2.7c0,1-0.1,2-0.1,3
		c0,0.5,0.1,1-0.2,1.5c0,0.1,0,0.3,0,0.4c0,1.1,0,2.3-0.1,3.4c-0.1,1.6-0.2,3.2-0.2,4.7c0,1.2-0.1,2.3-0.3,3.5
		c-0.1,0.4-0.1,0.9-0.1,1.3C31.2,95.3,31.8,95.3,32.4,95.3z"/>
	
		<linearGradient id="SVGID_1_" gradientUnits="userSpaceOnUse" x1="23.0143" y1="39.952" x2="66.7311" y2="39.952" gradientTransform="matrix(1 0 0 -1 0 102)">
		<stop  offset="0" style="stop-color:#FF6600"/>
		<stop  offset="1" style="stop-color:#F4AC2B"/>
	</linearGradient>
	<path class="st1" d="M31.7,50.9c-0.1,0.2-0.1,0.3-0.2,0.4c-0.5,0.6-0.6,1.3-0.9,2c-0.2,0.6-0.1,1.2,0.1,1.8
		c0.1,0.3,0.4,0.6,0.8,0.6c0.6,0.1,1-0.1,1.5-0.4c1-0.7,1.8-1.6,2.6-2.5c0.5-0.6,1.2-1.1,1.7-1.7c0.3-0.3,0.5-0.7,0.8-1.2
		c0.9-0.1,1.9-0.3,2.9-0.5c0.6-0.1,1.1-0.3,1.6-0.5c0.5-0.2,1-0.4,1.6-0.4c0.4-0.1,0.9-0.3,1.3-0.3c0.9-0.2,1.7-0.3,2.6-0.5
		c0.8-0.2,1.5-0.4,2.2-0.5c0.3-0.1,0.7-0.1,1-0.1c0.3,0,0.5-0.1,0.8-0.2c0.7-0.1,1.3-0.3,2-0.4c0.2,0,0.3,0,0.5,0
		c0.3,0,0.7-0.1,1-0.1c0.4,0,0.8,0,1.3,0c0.5,0,1,0,1.5-0.1c0.2,0,0.3-0.1,0.4-0.1c0.9-0.4,1.8-0.7,2.9-0.7c0.7,0,1.3,0,2,0.1
		c0.7,0.2,1.4,0.4,1.9,0.9c0.4,0.3,0.7,0.5,0.9,0.9c0.3,0.5,0.3,1,0.2,1.6c-0.1,0.4-0.2,0.9-0.3,1.3c0,0.1,0,0.2-0.1,0.3
		c-0.4,0.4-0.4,1-0.6,1.5c-0.1,0.3-0.3,0.6-0.4,0.9c-0.4,0.9-0.8,1.7-1.2,2.6c-0.2,0.5-0.5,1.1-0.7,1.6c-0.1,0.2-0.2,0.3-0.2,0.5
		c-0.4,0.7-0.8,1.3-1.1,2.1c-0.3,0.8-0.8,1.5-1.1,2.2c-0.4,1-1,1.9-1.4,2.9c-0.7,1.6-1.6,3-2.4,4.6c-0.5,0.9-1.1,1.7-1.4,2.7
		c-0.3,0.9-0.6,1.7-0.9,2.6c-0.3,0.9-0.7,1.8-1,2.7c-0.1,0.2-0.3,0.4-0.4,0.6c-0.4,0.4-0.9,0.4-1.2-0.1c-0.3-0.4-0.5-0.9-0.7-1.4
		C50.9,75.2,50,74,49,72.8c-0.3-0.3-0.7-0.6-1-0.9c-0.5-0.3-0.9-0.8-1.5-0.9c-0.4-0.5-1-0.5-1.5-0.6c-0.5-0.2-1.1-0.2-1.6-0.3
		c-0.3-0.1-0.5-0.1-0.8-0.2c-0.7-0.1-1.4,0.1-2.1,0.1c-0.4,0-0.8,0-1.2,0c-0.6,0-1.1,0-1.7,0c-0.7,0-1.4,0.2-2.1,0.1
		c-0.2,0-0.5,0-0.7,0c-0.5,0-1,0.1-1.4-0.1c-0.1,0-0.2,0-0.3,0.1c-0.2,0-0.4,0.1-0.6,0c-0.6-0.2-1.2-0.1-1.8-0.2
		c-0.6-0.2-1.1-0.4-1.6-0.6c-0.8-0.3-1.5-0.8-2.1-1.5c-0.2-0.2-0.5-0.4-0.7-0.6c-0.3-0.4-0.6-0.7-0.8-1.2c-0.6-1-1.2-2-1.5-3.2
		c-0.2-1-0.6-2-0.9-3.1c0,0,0,0,0-0.1C23.1,58.9,23,57.9,23,57c0-1.2,0.2-2.4,0.3-3.5c0-0.3,0.1-0.7,0.3-1c0.2-0.4,0.5-0.7,0.9-0.7
		c1,0,1.9-0.3,2.9-0.1c0.1,0,0.2,0,0.2,0c0.6-0.3,1.3-0.3,2-0.3c0.4,0,0.7-0.2,1.1-0.3C31,51,31.3,51,31.7,50.9z"/>
	
		<linearGradient id="SVGID_00000116203927657572160310000014660904098642570933_" gradientUnits="userSpaceOnUse" x1="30.1113" y1="69.179" x2="47.4887" y2="69.179" gradientTransform="matrix(1 0 0 -1 0 102)">
		<stop  offset="0" style="stop-color:#FF6600"/>
		<stop  offset="1" style="stop-color:#F4AC2B"/>
	</linearGradient>
	<path style="fill:url(#SVGID_00000116203927657572160310000014660904098642570933_);" d="M31,38c0.2-2.9,0-5.3-0.3-7.7
		c-0.1-1-0.2-2-0.3-3c0-0.4-0.1-0.9-0.2-1.3c0-0.4-0.1-0.9-0.1-1.3c0-0.5,0.2-0.9,0.7-1.1c0.4-0.3,0.8-0.6,1.2-0.9
		c0.4-0.4,1-0.4,1.5-0.4c0.1,0,0.4,0.2,0.5,0.4c0.2,0.5,0.4,0.9,0.5,1.4c0.1,0.5,0.2,0.9,0.3,1.4c0.2,0.8,0.3,1.5,0.5,2.3
		c0.1,0.5,0.4,1.1,0.6,1.6c0.1,0.3,0.3,0.5,0.4,0.8c0.4,0.9,1.2,1.3,2,1.7c0.1,0,0.2,0,0.3,0c0.5-0.2,0.9-0.4,1.4-0.7
		c0.3-0.2,0.5-0.5,0.7-0.8c0.5-0.7,0.9-1.4,0.9-2.2c0.1-1.1,0.1-2.1,0.2-3.2c0-0.2-0.1-0.4-0.1-0.6c-0.2-0.7-0.2-1.4,0.3-2
		c0.3-0.4,0.8-0.4,1.1,0c0.5,0.5,1,1.1,1.6,1.5c0,0,0.1,0.1,0.1,0.1c0.9,0.1,0.9,0.9,1.1,1.5c0.1,0.7,0.2,1.5,0.2,2.3
		c0,0.6,0.2,1.2,0.2,1.8c0.1,1,0.1,2,0.2,3c0,0.5,0.2,1.1,0.2,1.6c0.1,0.7,0.1,1.4,0.2,2c0.1,0.6,0.2,1.3,0.2,1.9
		c0,0.7,0,1.4,0.3,2.1c0.2,0.6-0.4,1.7-1.1,1.9c-0.3,0.1-0.6,0.2-0.9,0.3c-0.6,0.1-1.1,0.2-1.7,0.3c-0.5,0.1-1,0.1-1.4,0.1
		c-0.6,0-1.3,0.2-1.9,0.4c-0.9,0.2-1.7,0.5-2.6,0.3c-0.5-0.1-1-0.1-1.5,0.1c-0.5,0.1-0.9,0-1.4,0c-0.2,0-0.3,0-0.5,0
		c-0.7,0.1-1.5,0.1-2.1-0.3c-0.7-0.4-1.2-0.9-1.3-1.8C30.9,40.2,30.9,38.8,31,38z"/>
	<g>
		<path class="st0" d="M51.5,41.2c0-0.2,0-0.3-0.1-0.4c-0.2-0.6-0.3-1.1-0.5-1.7c-0.3-0.9-0.6-1.7-0.9-2.6c-0.2-0.5-0.4-1-0.6-1.5
			c-0.1-0.3-0.3-0.7-0.4-1c-0.5-1.4-1.2-2.6-2-3.7c-0.5-0.7-0.9-1.6-1.4-2.3c-0.2-0.4-0.5-0.8-0.6-1.2c-0.2-0.7,0.1-1.1,0.8-1.2
			c0.6,0,1,0.2,1.4,0.6c0.2,0.3,0.4,0.6,0.7,1c0.3,0.5,0.6,0.9,0.9,1.4c0.6,0.8,1,1.6,1.4,2.4c0.3,0.7,0.7,1.5,1,2.2
			c0.1,0.3,0.2,0.7,0.4,1.1c0.3,0.9,0.6,1.7,0.9,2.6c0.3,0.9,0.6,1.8,0.9,2.8c0.2,0.6,0.3,1.2,0.4,1.8c0,0.1,0,0.3,0.1,0.3
			c0.3,0.2,0.3,0.5,0.4,0.9c0.1,0.3,0.2,0.6,0.5,0.9c0.4,0.3,0.8,0.8,1,1.3c0.3,0.7,0.4,1.5,0.1,2.2c-0.2,0.5-0.6,0.8-1,1
			c-0.5,0.2-0.9,0.3-1.4,0.3c-0.8-0.1-1.5,0.2-2.3,0.2c-0.5,0-0.9,0.1-1.4,0.2c-0.1,0-0.1,0.1-0.2,0c-0.5-0.2-1,0.1-1.5,0.2
			c-0.9,0.2-1.7,0.3-2.6,0.4c-0.9,0.1-1.7,0.2-2.5,0.3c-0.2,0-0.5,0-0.7,0c-0.5,0.1-0.9,0.2-1.4,0.3c-0.7,0.1-1.1,0.6-1.6,1
			c-0.4,0.3-0.8,0.6-1.2,0.9c-0.7,0.8-1.5,1.5-2.1,2.3c-1,1.2-2,2.2-3.3,3c-0.8,0.4-1.6,0.4-2.3,0c-0.5-0.2-1-0.6-1.2-1.2
			c-0.2-0.6-0.4-1.2-0.2-1.7c0.2-0.6,0.4-1.2,0.6-1.8c0-0.1,0.1-0.2,0.1-0.4c-0.2,0-0.3,0-0.4,0c-0.9,0-1.8,0.1-2.7-0.1
			c-0.7-0.1-1.4-0.2-2.1-0.4c-0.7-0.2-1.4-0.5-1.9-1.2c-0.4-0.6-0.7-1.2-1.1-1.8c0-0.1-0.1-0.1-0.1-0.2c-0.1-0.9-0.4-1.7-0.3-2.7
			c0.1-1.1,0.1-2.2,0.3-3.2c0.2-1.1,0.4-2.2,0.6-3.4c0.2-1.2,0.7-2.3,1.1-3.4c0.2-0.4,0.3-0.9,0.4-1.3c0.5-1.2,1.1-2.4,1.7-3.5
			c0.7-1.2,1.3-2.4,2.1-3.6c0.7-1,1.3-2,2.3-2.7c0.3-0.2,0.6-0.4,1-0.6c0.4-0.2,0.7,0,0.8,0.5c0,0.3,0,0.6-0.2,0.9
			c-0.6,0.7-1.1,1.3-1.7,2c-0.2,0.2-0.3,0.5-0.5,0.7c-0.4,0.6-0.7,1.1-1.1,1.7c-0.3,0.5-0.5,0.9-0.9,1.3c-0.2,0.2-0.3,0.6-0.4,0.9
			c-0.3,0.7-0.7,1.3-0.9,2c-0.1,0.4-0.4,0.7-0.5,1.1c-0.1,0.3-0.3,0.6-0.4,0.9c-0.3,0.9-0.6,1.7-0.8,2.6c-0.2,0.6-0.3,1.3-0.4,2
			c-0.1,0.7-0.2,1.4-0.4,2.2c0,0.3,0,0.6-0.1,1c0,0.2,0,0.5,0,0.7c-0.1,0.8-0.1,1.6,0.1,2.4c0.1,0.4,0.3,0.8,0.5,1.2
			c0,0.1,0.1,0.1,0.1,0.2c0.7,0.4,1.3,1.1,2.2,1.2c0.1,0,0.2,0.1,0.3,0c1.4-0.1,2.8,0.1,4.2-0.2c0.9-0.2,1.8-0.2,2.6-0.4
			c1-0.3,1.9-0.4,2.9-0.6c0.2,0,0.5-0.1,0.7-0.1c0.3,0,0.7,0,1-0.2c0.1-0.1,0.2-0.1,0.3-0.1c0.7,0.1,1.4-0.2,2.1-0.3
			c0.5-0.1,1-0.1,1.5-0.2c0.4-0.1,0.7-0.1,1.1-0.2c0.2,0,0.5-0.1,0.7-0.1c0.9-0.1,1.8-0.2,2.7-0.3c0.8-0.1,1.5-0.2,2.3-0.3
			c0.1,0,0.2-0.1,0.3-0.1c0.4,0.1,0.8,0,1.2-0.2c0,0,0.1,0,0.2,0c0.6,0.1,1.2-0.1,1.8-0.2c0.2,0,0.3,0,0.5,0
			c0.5,0.2,0.9-0.1,1.3-0.1c-0.4-0.8-1.1-1.2-1.7-1.6c-0.2-0.1-0.3-0.2-0.5-0.3c-0.4-0.3-0.8-0.6-1.4-0.6c-0.6-0.1-1.2-0.2-1.7-0.3
			c-0.2,0-0.5,0-0.7,0c-0.6,0.1-1.2,0.1-1.8,0.2c-0.5,0.1-1.1,0.2-1.6,0.3c-0.7,0.1-1.4,0.3-2.2,0.3c-0.7,0.1-1.4,0.1-2.1,0.2
			c-0.1,0-0.2,0-0.3,0c-0.6,0.1-1.3,0.1-1.9,0.2c-0.2,0-0.3,0-0.5,0.1c-0.1,0-0.3,0.1-0.3,0c-0.3-0.2-0.7-0.1-1,0
			c-0.4,0.1-0.8,0.1-1.2,0.1c-0.8,0-1.7,0.1-2.5,0c-0.5,0-1.1-0.3-1.3-0.8c-0.2-0.4-0.3-0.8-0.3-1.2c-0.1-0.8-0.1-1.7-0.1-2.5
			c0-0.2,0-0.4,0-0.6c0-0.3,0-0.6,0-0.8c0-0.6-0.1-1.1-0.1-1.7c0-0.6,0-1.2,0-1.8c0-0.2,0-0.5-0.1-0.7c-0.1-0.7,0.2-1.5,0.8-1.9
			c0.5-0.3,1-0.1,1.1,0.5c0.1,1,0.1,2,0.2,3c0,1.1,0.1,2.2,0.1,3.3c0,0.6,0,1.2,0,1.8c0,0.3,0.1,0.6,0.1,1c0.5,0,0.9,0.1,1.4,0.1
			c0.7,0,1.3,0,2-0.1c0.1,0,0.2,0,0.2,0c0.5,0.1,0.9,0.2,1.4,0c0.3-0.1,0.6-0.1,0.9-0.1c0.5,0,1,0,1.5-0.1c0.7-0.1,1.3-0.2,2-0.3
			c0.2,0,0.4-0.1,0.6-0.1c0.8-0.1,1.6-0.2,2.4-0.3c0.2,0,0.4-0.1,0.6-0.1c0.5-0.1,1-0.1,1.5-0.2c0.3,0,0.6-0.1,0.9-0.1
			c0.8,0,1.6-0.1,2.4,0.1c0.4,0.1,0.9,0.1,1.2,0.5C51.2,41.1,51.3,41.2,51.5,41.2z M36.1,50.6c-1.7,0.3-3.3,0.4-4.8,0.9
			c-0.2,0.7-0.5,1.3-0.7,1.9c-0.1,0.4-0.2,0.8,0,1.2c0.3,0.1,0.7,0.2,1,0.2c0.4-0.1,0.9-0.2,1.3-0.6c0.5-0.6,1.1-1.1,1.6-1.7
			C34.9,51.8,35.5,51.2,36.1,50.6z"/>
		<path class="st0" d="M36.5,6.6c0.8,0,1.4,0,2.1,0.3c0.3,0.1,0.6,0,0.9,0.2c0.5,0.4,1.1,0.7,1.7,1c0.1,0.1,0.2,0.2,0.3,0.4
			c0.1,0.1,0.1,0.2,0.2,0.3c1.3,1.3,2,2.6,2.5,4.3c0.1,0.2,0.2,0.5,0.2,0.7c0.2,0.5,0.3,2.5,0.2,3.1c-0.2,0.7-0.3,1.4-0.6,2
			c-0.2,0.7-0.6,1.3-1.1,1.8c-0.3,0.2-0.5,0.5-0.7,0.8c-0.5,0.4-0.9,0.9-1.4,1.2c-1,0.6-2.1,1.1-3.3,0.9c-0.9-0.1-1.7-0.2-2.5-0.4
			c-0.1,0-0.2,0-0.3-0.1c-1-0.7-1.8-1.4-2.4-2.5c-0.5-1.1-0.8-2.2-1-3.4c-0.1-0.7,0-1.3,0-2c0-0.3,0.1-0.7,0.1-1
			c0-0.8,0.1-1.6,0.4-2.3c0,0,0-0.1,0-0.1c-0.6,0-1.1,0.1-1.6,0c-0.5-0.1-1.1-0.2-1.5-0.5c-0.5-0.4-1-0.8-1.4-1.3
			c-0.3-0.5-0.7-0.9-0.9-1.5c-0.5-1.4-0.3-2.8,0.2-4.2c0.4-1,1.1-1.9,2.1-2.4c0.2-0.1,0.3-0.2,0.4-0.3c0.1-0.1,0.3-0.2,0.4-0.2
			c0.4,0,0.8-0.1,1.3-0.3c0.6-0.2,1.2,0,1.7,0.1c0.2,0,0.4,0.1,0.6,0.1c0.1,0,0.1,0,0.2,0c0.5,0.3,1,0.5,1.4,0.8
			c1,0.6,1.4,1.5,1.8,2.5c0.2,0.5,0.3,1,0.2,1.5C36.5,6.2,36.5,6.4,36.5,6.6z M42.8,15.9c-0.6-0.5-0.7-1.1-0.4-1.7
			c0.1-0.4,0.1-0.7-0.1-1c-0.3-0.6-0.6-1.1-1-1.7c-0.4-0.6-0.9-1.2-1.5-1.7c-0.4-0.3-0.5-0.2-0.6,0.2c0,0.1-0.1,0.3-0.1,0.4
			c-0.3,1-0.8,1.8-1.3,2.7c-0.6,0.9-1.4,1.4-2,2.2c0,0-0.1,0.1-0.1,0.1c-0.3,0.2-0.5,0.4-0.8,0.5c-0.1,0.1-0.3,0.2-0.5,0.2
			c-0.5,0-0.8,0.4-1.2,0.7c-0.1,0-0.1,0.2-0.1,0.3c0.1,0.5,0.3,1,0.5,1.4c0.4,1,1.1,1.8,2.1,2.1c0.7,0.3,1.5,0.4,2.3,0.2
			c0.3-0.1,0.5-0.1,0.8-0.2c0.4-0.1,0.8-0.2,1.2-0.5c0.3-0.3,0.8-0.5,1.1-0.8c0.7-0.6,1.3-1.3,1.5-2.2
			C42.7,16.9,42.8,16.4,42.8,15.9z M31,3.5c-0.3,0-0.7-0.1-0.9,0c-0.5,0.2-1,0.5-1.5,0.9c-1.2,0.9-1.1,2.7-0.4,3.7
			c0.3,0.6,1,0.7,1.5,1c0.3,0.2,0.7,0.1,1.1,0.1c0.5-0.1,1-0.2,1.5-0.3c0.4-0.1,0.7-0.2,0.8-0.6c0.3-0.5,0.6-0.9,1.1-1.1
			c0.5-0.2,0.5-0.5,0.5-0.9c0-0.1,0-0.2,0-0.3c0-0.8-0.6-1.2-1.1-1.6c-0.2-0.2-0.5-0.4-0.8-0.5C32.3,3.5,31.7,3.3,31,3.5z
			 M32.9,14.5c0.4,0,0.6-0.1,0.8-0.3c0.1-0.1,0.3-0.2,0.4-0.3c0.4-0.3,0.9-0.5,1.3-0.8c0.1,0,0.1-0.1,0.2-0.2
			c0.6-0.9,1.3-1.7,1.7-2.8c0.1-0.3,0.2-0.6,0.4-0.9c-0.8-0.1-1.5-0.2-2.2,0.1c-0.6,0.2-1,0.6-1.3,1.1c-0.5,1-0.9,2.1-1.1,3.3
			C33.1,13.9,33,14.2,32.9,14.5z"/>
		<path class="st0" d="M41.9,16.2c0,0.2-0.1,0.4-0.1,0.5c-0.3,0.8-0.7,1.5-1.4,2c-0.6,0.5-1.3-0.1-1.3-0.7c0-0.5,0.1-1,0.5-1.4
			c0.4-0.3,0.4-0.7,0.3-1.1c-0.2-0.6-0.1-1.1,0-1.6c0-0.1,0.1-0.3,0.2-0.4c0.2-0.2,0.4-0.5,0.7-0.4c0.3,0.1,0.6,0.2,0.6,0.6
			c0.1,0.6,0.2,1.1,0.4,1.7C41.9,15.7,41.9,15.9,41.9,16.2z"/>
		<path class="st0" d="M39.2,14.6c0,0.6-0.4,1.2-0.8,1.4c-0.3,0.1-0.7,0-0.9-0.3c-0.4-0.6-0.1-1.7,0.5-2.1c0.4-0.2,0.8-0.1,1,0.3
			C39.1,14.2,39.2,14.5,39.2,14.6z"/>
	</g>
	<path class="st0" d="M31,3.5c-0.3,0-0.7-0.1-0.9,0c-0.5,0.2-1,0.5-1.5,0.9c-1.2,0.9-1.1,2.7-0.4,3.7c0.3,0.6,1,0.7,1.5,1
		c0.3,0.2,0.7,0.1,1.1,0.1c0.5-0.1,1-0.2,1.5-0.3c0.4-0.1,0.7-0.2,0.8-0.6c0.3-0.5,0.6-0.9,1.1-1.1c0.5-0.2,0.5-0.5,0.5-0.9
		c0-0.1,0-0.2,0-0.3c0-0.8-0.6-1.2-1.1-1.6c-0.2-0.2-0.5-0.4-0.8-0.5C32.3,3.5,31.7,3.3,31,3.5z"/>
	<path class="st0" d="M32.9,14.5c0.4,0,0.6-0.1,0.8-0.3c0.1-0.1,0.3-0.2,0.4-0.3c0.4-0.3,0.9-0.5,1.3-0.8c0.1,0,0.1-0.1,0.2-0.2
		c0.6-0.9,1.3-1.7,1.7-2.8c0.1-0.3,0.2-0.6,0.4-0.9c-0.8-0.1-1.5-0.2-2.2,0.1c-0.6,0.2-1,0.6-1.3,1.1c-0.5,1-0.9,2.1-1.1,3.3
		C33.1,13.9,33,14.2,32.9,14.5z"/>
</g>
</svg>
