<?xml version="1.0" encoding="utf-8"?>
<!-- Generator: Adobe Illustrator 27.9.0, SVG Export Plug-In . SVG Version: 6.00 Build 0)  -->
<svg version="1.1" id="Layer_1" xmlns="http://www.w3.org/2000/svg" xmlns:xlink="http://www.w3.org/1999/xlink" x="0px" y="0px"
	 viewBox="0 0 100 100" style="enable-background:new 0 0 100 100;" xml:space="preserve">
<style type="text/css">
	.st0{fill:#290852;}
	.st1{fill:url(#SVGID_1_);}
	.st2{fill:url(#SVGID_00000114762530415108189530000007636340112269452723_);}
	.st3{fill:url(#SVGID_00000028315951325476651710000006507533174936451211_);}
	.st4{fill:url(#SVGID_00000093134579066292023050000005821123882112512950_);}
</style>
<g>
	<g>
		<path class="st0" d="M30.9,94.2c-0.1-0.4-0.2-0.7-0.3-1c0,0,0-0.1,0-0.1c0-0.5-0.3-0.9-0.5-1.4c-0.2-0.3-0.2-0.7-0.4-1.1
			c-0.1-0.2-0.1-0.5-0.2-0.7c-0.3-0.5,0-1.4,0.5-1.8c0.2-0.1,0.5-0.1,0.8,0.1c0.5-0.4,0.9-0.8,1.4-1.2c0.3-0.2,0.6-0.5,0.9-0.7
			c0.1-0.1,0.2-0.2,0.4-0.4c0.5-0.4,1.1-0.8,1.6-1.3c0.8-0.7,1.5-1.5,2.3-2.3c0.4-0.4,0.7-0.8,1.1-1.2c0.2-0.3,0.4-0.6,0.7-0.8
			c0.3-0.4,0.7-0.7,0.9-1.1c0.2-0.3,0.5-0.6,0.7-0.9c0.1-0.2,0.2-0.4,0.3-0.5c0.3-0.5,0.7-0.9,1-1.3c0.4-0.6,0.9-1.3,1.2-1.9
			c0.5-0.8,0.9-1.7,1.3-2.5c0.1-0.3,0.3-0.5,0.5-0.8c0.2-0.5,0.4-1.1,0.7-1.6c0.2-0.4,0.4-0.8,0.6-1.1c0.2-0.3,0.4-0.5,0.8-0.4
			c0.2,0,0.4,0.2,0.4,0.4c0.1,0.6-0.1,1.2-0.2,1.8c-0.1,0.2-0.2,0.3-0.3,0.5c-0.3,0.6-0.6,1.2-0.8,1.9c-0.1,0.3-0.3,0.6-0.5,0.8
			c-0.2,0.4-0.4,0.9-0.6,1.3c0,0.1-0.1,0.1-0.1,0.2c-0.2,0.3-0.4,0.7-0.7,1c-0.2,0.3-0.4,0.7-0.6,1c-0.1,0.3-0.4,0.5-0.6,0.8
			c-0.2,0.3-0.4,0.7-0.6,1c-0.2,0.3-0.5,0.5-0.7,0.8c-0.2,0.2-0.3,0.5-0.5,0.7c-0.1,0.1-0.1,0.2-0.2,0.3c-0.2,0.3-0.4,0.6-0.6,0.8
			c-0.3,0.3-0.5,0.7-0.8,1c-0.6,0.7-1.2,1.4-1.9,2.1c-0.5,0.5-1.1,1-1.6,1.5c-0.4,0.3-0.8,0.7-1.2,1c-0.4,0.3-0.7,0.6-1.1,0.9
			c-0.4,0.3-0.8,0.7-1.2,1c-0.2,0.2-0.5,0.4-0.8,0.6c-0.2,0.2-0.4,0.4-0.5,0.6c0,0,0,0.1,0,0.2c0.2,0.4,0.2,0.9,0.4,1.4
			c0.3,0.7,0.6,1.4,0.7,2.2c0,0.4,0.1,0.4,0.5,0.4c0.4,0,0.9-0.1,1.3-0.1c0.4,0,0.8,0.1,1.2,0.1c0.2,0,0.3-0.1,0.5-0.1
			c0.2,0,0.5-0.1,0.7,0c0.4,0.1,0.8,0,1.1,0c0.2,0,0.5,0,0.7,0c0.3,0,0.6,0,0.9,0c0.3,0,0.5,0,0.8,0c0.4,0,0.8,0.1,1.3,0.1
			c0.2,0,0.4,0,0.6-0.1c0.3-0.1,0.6,0,0.8,0.1c0.1,0,0.2,0,0.3,0c0.2-0.1,0.3-0.1,0.6-0.1c0.3,0,0.7,0,1.1,0c0,0,0.1,0,0.1,0
			c0.3,0,0.5,0,0.8,0c0.2,0,0.3,0,0.5,0c0.3,0,0.6,0,0.9,0c0.5,0,1,0.1,1.5,0.1c0.2,0,0.5,0,0.7-0.1c0.1,0,0.2,0,0.3,0
			c0.3,0,0.7,0,1,0.1c0.6,0,1.1,0,1.7,0c0.2,0,0.4,0,0.7-0.1c0,0,0,0,0,0c0.5,0,0.9,0.1,1.4,0.1c0.2,0,0.4,0,0.5,0
			c0.3,0,0.6-0.1,0.8-0.1c0.5,0,1.1,0.1,1.6,0.2c0.1,0,0.1,0,0.2,0c0.5-0.1,1.1-0.2,1.6,0c0.1,0,0.1,0,0.2,0c0.4-0.1,0.9,0,1.3,0
			c0,0,0,0,0.1,0c0.3,0,0.7-0.1,1-0.1c0.1,0,0.1,0,0.2,0c0.3,0,0.6,0,0.9,0.1c0.5,0.1,1-0.1,1.4,0.1c0.2,0.1,0.4,0,0.6,0
			c0.4,0,0.8,0.1,1.2,0.1c0.3,0,0.6,0,1,0c0.2,0,0.4,0,0.5,0.1c0.2,0,0.4,0,0.6,0c-0.2-0.5-0.4-0.9-0.6-1.3c0-0.1,0-0.2-0.1-0.3
			c-0.1-0.2-0.3-0.4-0.5-0.6c-0.2-0.3-0.3-0.6-0.4-0.9c0-0.1,0-0.2-0.1-0.2c-0.4-0.3-0.4-0.7-0.5-1c0,0,0-0.1,0-0.1
			C66,90,66,89.8,65.9,89.6c-0.1-0.2-0.2-0.4-0.3-0.6c-0.1-0.2-0.3-0.4-0.4-0.7c-0.1-0.1-0.1-0.3-0.2-0.4c-0.1-0.2-0.1-0.4-0.3-0.6
			c-0.2-0.3-0.3-0.6-0.5-0.9c-0.2-0.3-0.2-0.7-0.4-1c-0.3-0.4-0.6-0.9-0.6-1.4c0-0.3-0.2-0.5-0.3-0.8c-0.2-0.4-0.6-0.8-0.5-1.3
			c0-0.1-0.1-0.2-0.1-0.2c-0.3-0.2-0.4-0.5-0.5-0.7c-0.2-0.4-0.2-0.9-0.5-1.2c-0.1-0.1-0.1-0.2-0.1-0.2c0-0.1,0-0.2-0.1-0.2
			c-0.3-0.2-0.3-0.6-0.5-0.9c0-0.1,0-0.1-0.1-0.2c-0.4-0.5-0.7-1-0.9-1.5c-0.1-0.2-0.2-0.3-0.3-0.4c-0.1-0.2-0.2-0.5-0.3-0.7
			c0,0-0.1-0.1-0.1-0.1c-0.2-0.4-0.4-0.8-0.6-1.2c0-0.1-0.1-0.1-0.1-0.2c-0.2-0.2-0.3-0.4-0.4-0.7c0-0.2-0.2-0.3-0.3-0.4
			c0-0.1-0.1-0.1-0.1-0.2c-0.2-0.3-0.3-0.6-0.5-0.9c0-0.1-0.1-0.1-0.1-0.2c-0.1-0.2-0.3-0.5-0.4-0.7c-0.1-0.2-0.2-0.4-0.3-0.6
			c-0.1-0.3-0.3-0.5-0.4-0.8c-0.1-0.3-0.3-0.6-0.3-0.9c0-0.2-0.1-0.5-0.2-0.7c-0.1-0.2-0.1-0.4,0.1-0.5c0.2-0.2,0.5-0.2,0.7,0
			c0.2,0.2,0.4,0.3,0.6,0.5c0,0,0,0.1,0.1,0.1c0.6,0.1,0.7,0.7,1.1,1c0.1,0.1,0.3,0.2,0.4,0.4c0.2,0.2,0.3,0.5,0.5,0.7
			c0.2,0.3,0.4,0.6,0.6,0.9c0.1,0.2,0.3,0.5,0.4,0.7c0.1,0.2,0.2,0.4,0.2,0.6c0.2,0.3,0.4,0.7,0.6,1c0.2,0.3,0.4,0.6,0.6,0.9
			c0.4,0.7,0.7,1.3,1.1,2c0.2,0.4,0.3,0.7,0.5,1.1c0.1,0.2,0.3,0.4,0.4,0.6c0,0.1,0.1,0.1,0.1,0.2c0.2,0.8,0.7,1.5,1.1,2.3
			c0.1,0.1,0.1,0.2,0.1,0.4c0,0.2,0.1,0.4,0.2,0.6c0.2,0.3,0.3,0.6,0.4,0.9c0.2,0.4,0.4,0.9,0.6,1.3c0.1,0.1,0.1,0.2,0.2,0.4
			c0.1,0.4,0.2,0.7,0.4,1.1c0.2,0.4,0.5,0.8,0.7,1.2c0.1,0.1,0.1,0.2,0.1,0.4c0.1,0.2,0.1,0.3,0.2,0.5c0.1,0.3,0.3,0.6,0.4,0.9
			c0.2,0.4,0.4,0.7,0.6,1.1c0.2,0.4,0.5,0.8,0.6,1.2c0.1,0.5,0.5,0.7,0.6,1.1c0,0.1,0.1,0.2,0.1,0.3c0,0.4,0.2,0.6,0.4,0.9
			c0.1,0.2,0.2,0.4,0.4,0.6c0.5-0.2,0.9-0.4,1.3-0.6c0.7-0.3,1.3-0.6,2-0.9c0.8-0.4,1.6-0.7,2.4-1.1c0.8-0.4,1.6-0.8,2.4-1.2
			c0.7-0.4,1.3-0.7,1.9-1.1c0.5-0.4,1-0.7,1.6-1.1c0.1-0.1,0.2-0.2,0.3-0.3c-0.2,0-0.3,0-0.5,0.1c-0.3,0-0.7,0-1,0.2
			c-0.2,0.1-0.4,0.1-0.6,0.1c-0.2,0-0.4,0.1-0.7,0.2c0,0-0.1,0.1-0.1,0c-0.6,0-1.1,0.3-1.7,0.5c-0.3,0.1-0.5,0.1-0.8,0.2
			C76.6,87.9,76.3,88,76,88c-0.7,0-1.4-0.2-1.7-0.9c-0.1-0.2-0.3-0.4-0.3-0.7c0,0,0,0,0,0c-0.4-0.3-0.4-0.7-0.6-1.1
			c-0.1-0.2-0.3-0.3-0.3-0.4c-0.2-0.4-0.5-0.6-0.5-1.1c0-0.1-0.1-0.2-0.2-0.3c-0.3-0.2-0.4-0.6-0.6-0.9c-0.2-0.4-0.5-0.7-0.6-1.2
			c-0.1-0.2-0.2-0.4-0.3-0.6c-0.1-0.4-0.5-0.6-0.5-1c0-0.2-0.2-0.4-0.3-0.5c0,0-0.1-0.1-0.1-0.1c0-0.3-0.3-0.5-0.4-0.7
			c-0.1-0.1-0.2-0.2-0.2-0.4c-0.1-0.3-0.2-0.7-0.4-1c-0.1-0.1-0.2-0.2-0.2-0.4c-0.2-0.3-0.3-0.6-0.4-1c0,0,0-0.1,0-0.1
			c-0.2-0.3-0.3-0.5-0.5-0.7c-0.3-0.2-0.3-0.5-0.4-0.8c0-0.1,0-0.2-0.1-0.3c-0.3-0.3-0.5-0.7-0.6-1.1c-0.1-0.3-0.3-0.5-0.5-0.7
			c0,0-0.1-0.1-0.1-0.1c-0.1-0.3-0.2-0.6-0.5-0.8c-0.2-0.2-0.3-0.5-0.5-0.8c-0.2-0.3-0.3-0.5-0.5-0.8c-0.1-0.2-0.1-0.4-0.2-0.6
			c-0.1-0.1-0.2-0.3-0.3-0.4c-0.1-0.1-0.2-0.2-0.2-0.4c-0.1-0.4-0.3-0.9-0.4-1.3c0-0.3,0-0.6,0.1-0.9c0.1-0.3,0.4-0.4,0.7-0.2
			c0.5,0.2,0.9,0.5,1.2,1c0.2,0.3,0.4,0.6,0.6,0.9c0.4,0.7,0.8,1.5,1.2,2.2c0.1,0.3,0.2,0.6,0.4,0.8c0.4,0.4,0.6,0.9,0.9,1.4
			c0.2,0.3,0.3,0.6,0.5,0.9c0.1,0.2,0.3,0.5,0.4,0.7c0.1,0.2,0.2,0.4,0.3,0.6c0.2,0.4,0.3,0.8,0.6,1.1c0.2,0.2,0.3,0.6,0.4,0.8
			c0.1,0.2,0.2,0.3,0.3,0.4c0.3,0.4,0.6,0.9,0.7,1.4c0.1,0.4,0.4,0.7,0.6,1c0.2,0.4,0.5,0.8,0.7,1.2c0.1,0.2,0.2,0.3,0.3,0.4
			c0.3,0.5,0.5,0.9,0.7,1.4c0.2,0.3,0.3,0.5,0.3,0.9c0,0.1,0.1,0.2,0.1,0.2c0.4,0.4,0.6,0.9,0.8,1.5c0,0.1,0.1,0.2,0.2,0.2
			c0.2,0.1,0.3,0.4,0.4,0.6c0.1,0.3,0.3,0.5,0.5,0.7c0,0,0.1,0,0.2,0c0.8-0.2,1.7-0.5,2.5-0.7c0.6-0.2,1.3-0.2,1.9-0.4
			c0.5-0.1,1-0.3,1.6-0.2c0.3,0,0.7-0.1,1,0c0.3,0,0.6,0.1,0.8,0.2c0.5,0.2,0.6,0.8,0.3,1.2c-0.3,0.3-0.5,0.7-0.8,1
			c-0.4,0.4-0.9,0.7-1.3,1.1c-0.1,0.1-0.2,0.2-0.3,0.3c-0.7,0.7-1.5,1.2-2.4,1.7c-0.7,0.4-1.3,0.7-2,1c-0.8,0.4-1.7,0.8-2.5,1.2
			c-0.4,0.2-0.7,0.3-1.1,0.5c-0.5,0.2-0.9,0.5-1.4,0.7c-0.4,0.2-0.8,0.3-1.2,0.5c-0.2,0.1-0.3,0.2-0.6,0.4c0.1,0,0.2,0.1,0.3,0.1
			c0.3,0,0.7,0.1,1,0c0.4,0,0.8,0.1,1.3,0c0.4-0.1,0.9,0,1.4,0c0.3,0,0.6,0,1,0c0.2,0,0.4,0,0.6,0.1c0.1,0,0.3,0,0.4,0
			c0,0,0.1,0,0.1,0c0.5,0.1,1-0.1,1.5-0.1c0.3,0,0.7,0.1,1,0.1c0.1,0,0.3,0.1,0.4,0c0.5-0.1,1-0.2,1.6-0.1c0.2,0.1,0.5,0,0.7,0
			c0.2,0,0.4,0,0.7,0c0.2,0,0.5-0.1,0.7-0.1c0.2,0,0.5,0,0.7,0c0.2,0,0.4,0,0.6,0c0.2,0,0.3,0,0.5,0c0.3,0,0.7,0.1,1,0
			c0.5-0.1,1-0.1,1.5,0c0.2,0,0.3,0,0.5,0c0.4,0,0.7,0.1,1.1,0.1c0.2,0,0.5,0,0.7,0c0.4,0,0.8,0.1,1.3,0.2c0.5,0.1,0.7,0.4,0.5,0.8
			c-0.1,0.2-0.1,0.4-0.2,0.6c-0.1,0.3-0.3,0.3-0.6,0.4c-0.4,0.2-0.8,0.1-1.2,0c-0.2,0-0.4,0-0.6-0.1c-0.3,0-0.5-0.1-0.8-0.1
			c-0.1,0-0.2,0-0.3,0c-0.2,0-0.4,0-0.6,0c-0.3,0-0.7,0-1,0c-0.3,0-0.7,0-1,0c-0.3,0-0.6-0.1-0.8-0.1c-0.2,0-0.4,0-0.6,0
			c-0.1,0-0.2-0.1-0.4-0.1c-0.2,0-0.4,0.1-0.6,0.1c-0.3,0-0.6-0.1-0.8-0.1c-0.4,0-0.7,0-1,0.1c-0.7,0-1.3,0.1-2,0
			c-0.6-0.1-1.2,0.1-1.8,0c-0.3,0-0.5-0.1-0.8-0.1c-0.1,0-0.2,0-0.3,0c-0.4-0.1-0.9,0.1-1.3,0.1c-0.8,0-1.7,0.1-2.5-0.1
			c-0.9-0.1-1.7,0.1-2.6,0c-0.3,0-0.6-0.1-0.9-0.1c-0.7,0-1.4,0.1-2,0.1c-0.7,0-1.3-0.1-2-0.1c-0.2,0-0.3,0-0.5,0
			c-0.4,0-0.7-0.1-1.1-0.1c0,0-0.1,0-0.1,0c-0.5,0-0.9,0-1.3,0c-0.2,0-0.5,0-0.7-0.1c-0.1,0-0.2,0-0.2,0c-0.4,0-0.8,0-1.2-0.1
			c-0.2-0.1-0.5,0-0.8,0c-0.2,0-0.3,0-0.5,0c-0.2,0-0.5,0.1-0.7,0.1c-0.4,0-0.8-0.1-1.2-0.1c-0.2,0-0.5,0-0.7,0.1
			c-0.6,0-1.1,0.1-1.7,0.1c0,0-0.1,0-0.1,0c-0.1-0.2-0.3-0.1-0.5-0.1c-0.3,0-0.6,0.1-0.8,0.1c-0.5,0-1,0-1.5,0
			c-0.6,0-1.2,0.1-1.9,0.1c-0.2,0-0.5,0-0.7,0c-0.2,0-0.4,0-0.5,0c-0.3,0-0.6,0-0.9,0c-0.5,0-1,0-1.5,0c-0.4,0-0.8-0.1-1.2-0.1
			c-0.1,0-0.2,0-0.3,0c-0.4,0-0.8,0-1.2,0c-0.1,0-0.2,0-0.3,0c-0.2,0-0.3,0.1-0.5-0.1c-0.1-0.1-0.3-0.1-0.4,0
			c-0.4,0.2-0.8,0.1-1.3,0.1c0,0-0.1,0-0.1,0c-0.4,0.2-0.8,0.1-1.2,0.1c-0.3,0-0.7-0.1-1-0.1c-0.2,0-0.4,0-0.6,0
			c-0.5,0.1-0.9,0.1-1.4,0c-0.1,0-0.2,0-0.3,0c-0.4,0.1-0.9,0.1-1.3,0c0,0-0.1,0-0.1,0c-0.4,0-0.7,0-1.1,0.1c-0.6,0.1-1.1,0-1.5,0
			c-0.4,0.2-0.7,0.4-1,0.5c-0.3,0.1-0.6,0-0.8-0.2c-0.2-0.2-0.5-0.4-0.8-0.2c0,0-0.1,0-0.1,0c-0.3-0.3-0.6-0.1-0.9-0.1
			c-0.3,0-0.7,0.1-1,0.1c-0.2,0-0.4,0.1-0.6,0c-0.3,0-0.7,0-1,0c-0.1,0-0.1,0-0.2,0c-0.4,0-0.7,0.1-1.1,0.1c0,0-0.1,0-0.1,0
			c-0.3-0.2-0.6,0-1,0c-0.3,0-0.6,0-0.9,0c-0.2,0-0.3,0-0.5,0c-0.5,0-0.9,0-1.4,0c-0.1,0-0.2,0-0.3,0c-0.4,0.1-0.9,0.1-1.3,0
			c-0.1,0-0.2,0-0.2,0c-0.4,0-0.8,0.1-1.1,0.1c-0.3,0-0.6,0-1,0c-0.4,0-0.8,0-1.2,0c-0.1,0-0.2,0.1-0.3,0.1c-0.1,0-0.2,0-0.3,0
			c-0.1,0-0.2,0-0.2,0c-0.3,0-0.5,0.1-0.8,0.1c-0.3,0-0.7,0-1,0c-0.2,0-0.4,0-0.7,0c-0.3,0-0.6,0-0.9,0.1c-0.3,0-0.5,0-0.8,0.1
			c-0.2,0-0.4,0.1-0.6-0.1c-0.1-0.1-0.3,0-0.5,0c-0.4,0-0.7,0-1.1-0.1c-0.3,0-0.6-0.1-0.8-0.3c-0.3-0.1-0.4-0.5-0.1-0.7
			c0.7-0.6,1.5-0.9,2.5-0.9c0.1,0,0.1,0,0.2-0.1c0.2-0.2,0.4-0.2,0.7-0.2c0.5,0,1.1,0,1.6,0c0.5,0,1,0,1.6,0c0.4,0,0.8,0,1.2,0
			c0.5,0,1.1-0.1,1.6-0.1c0.2,0,0.4,0,0.6,0c0.7,0,1.3,0,2,0c0.4,0,0.8-0.1,1.2,0c0.5,0.1,0.9-0.1,1.3-0.1c0.1,0,0.2,0,0.3,0
			c0.7,0,1.4,0,2.1,0c0.3,0,0.5-0.1,0.8-0.1c0.2,0,0.3,0,0.5,0c0.4,0.1,0.7,0,1.1-0.1c0.1,0,0.2,0,0.3,0c-0.1-0.2-0.3-0.3-0.4-0.5
			c-0.2-0.3-0.5-0.6-0.7-1c-0.1-0.3-0.3-0.6-0.5-0.9c-0.1-0.2-0.3-0.3-0.4-0.5c-0.3-0.5-0.6-1-0.9-1.5c-0.2-0.3-0.4-0.6-0.5-1
			c0-0.2-0.2-0.3-0.4-0.5c-0.4-0.5-0.6-1.1-0.8-1.7c-0.1-0.1,0-0.3,0-0.4c0-0.6-0.1-1.2,0.1-1.8c0.2-0.5,0.5-0.9,1-1.2
			c0.1-0.1,0.2-0.2,0.3-0.3c0.5-0.4,1-0.9,1.5-1.3c0.4-0.3,0.7-0.7,1.1-1.1c0.4-0.4,0.8-0.8,1.2-1.2c0.2-0.2,0.5-0.5,0.7-0.8
			c0.3-0.3,0.6-0.5,0.8-0.8c0.4-0.4,0.7-0.8,1-1.2c0.3-0.3,0.5-0.6,0.8-0.9c0,0,0.1-0.1,0.1-0.1c0.2-0.3,0.4-0.7,0.7-0.9
			c0.4-0.3,0.5-0.8,0.9-1.2c0.3-0.3,0.4-0.7,0.7-1c0.2-0.3,0.5-0.6,0.7-0.9c0.2-0.3,0.3-0.6,0.5-0.8c0.3-0.5,0.6-1,0.9-1.5
			c0.2-0.5,0.4-1,0.6-1.4c0.1-0.3,0.2-0.7,0.5-0.9c0.2-0.2,0.4-0.2,0.7-0.2c0.2,0.1,0.3,0.3,0.4,0.5c0.1,0.6,0.1,1.1-0.1,1.7
			c-0.2,0.7-0.6,1.3-0.9,1.9c-0.4,0.7-0.8,1.3-1.3,1.9c-0.4,0.6-0.7,1.2-1.1,1.8c-0.2,0.3-0.5,0.7-0.7,1c-0.3,0.4-0.6,0.8-0.9,1.3
			c-0.3,0.4-0.6,0.8-0.9,1.1c-0.3,0.4-0.7,0.8-1,1.2c-0.2,0.2-0.4,0.4-0.6,0.6c-0.3,0.3-0.5,0.6-0.7,0.8c-0.2,0.2-0.4,0.4-0.6,0.5
			c-0.3,0.3-0.6,0.6-0.9,0.9c-0.2,0.2-0.3,0.4-0.5,0.6c-0.3,0.3-0.7,0.6-1,0.9c-0.4,0.4-0.7,0.8-1.1,1.1c-0.2,0.2-0.5,0.4-0.8,0.6
			c-0.4,0.3-0.4,0.5-0.2,0.9c0.1,0.2,0.1,0.4,0.2,0.5c0.1,0.1,0.1,0.3,0.2,0.4c0,0,0,0,0,0.1c0,0.5,0.4,0.7,0.6,1
			c0.3,0.4,0.5,0.9,0.7,1.3c0.1,0.1,0.2,0.2,0.3,0.3c0.2,0.4,0.3,0.7,0.5,1.1c0.1,0.2,0.3,0.4,0.4,0.6c0,0,0.1,0.1,0.1,0.1
			c0.1,0.3,0.2,0.5,0.4,0.7c0.2,0.3,0.3,0.6,0.6,0.8c0.1,0.1,0.3,0.2,0.4,0.3c0.4,0.3,0.7,0.6,1.1,0.9
			C30.6,94.1,30.7,94.2,30.9,94.2C30.8,94.3,30.8,94.3,30.9,94.2z"/>
		<path class="st0" d="M35.3,10.7c-0.8,0.4-1.6,0.2-2.4-0.1c0,0-0.1-0.1-0.1-0.1c-0.5,0.1-0.7-0.2-1-0.5c-0.1-0.1-0.2-0.2-0.3-0.2
			c-0.5-0.2-0.9-0.6-1.1-1.1c-0.2-0.4-0.5-0.9-0.7-1.3c-0.3-0.6-0.4-1.3-0.4-2c0-0.3,0-0.5,0-0.8c0.1-0.4,0.2-0.8,0.4-1.2
			c0.2-0.4,0.4-0.8,0.7-1.1c0.1-0.1,0.2-0.2,0.4-0.3c0.2-0.2,0.5-0.3,0.7-0.5c0.4-0.3,0.8-0.4,1.3-0.4C33.2,1.1,33.6,1,34,1
			c0.4,0,0.8,0.2,1.2,0.3c0.6,0.2,1.2,0.6,1.7,0.9c0,0,0.1,0,0.1,0.1c0.4,0.5,0.8,1,1.2,1.5c0.2,0.3,0.3,0.6,0.4,0.9
			c0.1,0.2,0.1,0.3,0.2,0.6C39,5.2,39.2,5.1,39.5,5c0.3-0.1,0.6-0.2,0.9-0.3c0,0,0,0,0,0c0.4,0,0.8,0.1,1.2,0.1c0.1,0,0.2,0,0.2,0
			c0.1,0,0.2-0.1,0.3-0.1c0.4,0.1,0.7,0.2,1.1,0.3c0.1,0,0.1,0.1,0.2,0.1c0.4,0,0.7,0.3,1,0.6C44.5,5.9,44.8,6,45,6.2
			c0.2,0.2,0.5,0.3,0.7,0.6c0.4,0.5,0.8,0.9,1.1,1.5c0.3,0.5,0.6,1.1,0.8,1.7c0.1,0.3,0.1,0.7,0.2,1c0,0.2,0.1,0.4,0.1,0.7
			c0.1,1,0,2.1-0.2,3.1c-0.1,0.4-0.2,0.8-0.3,1.1c-0.2,0.7-0.5,1.3-0.9,1.9c-0.2,0.2-0.2,0.5-0.4,0.8c-0.3,0.4-0.6,0.9-0.8,1.3
			c-0.1,0.2-0.3,0.3-0.5,0.5c-0.1,0.1-0.2,0.1-0.3,0.2c0,0-0.1,0-0.1,0.1c-0.1,0.2-0.3,0.2-0.5,0.2c-0.4,0.1-0.9,0.1-1.3,0.1
			c-0.4,0-0.8,0-1.1,0c-0.5-0.1-1-0.4-1.5-0.5c-0.7-0.1-1-0.6-1.7-0.8c-0.2,0-0.3-0.2-0.4-0.3c-0.2-0.2-0.4-0.3-0.6-0.5
			c-0.8-0.7-1.3-1.5-1.7-2.4c-0.3-1-0.4-2-0.4-3c0-0.7,0.1-1.4,0.1-2.2C35.3,10.9,35.3,10.8,35.3,10.7z M36.8,13.5
			c0,0.2,0,0.5,0,0.7c0,0.2,0.1,0.5,0.2,0.7c0.1,0.8,0.5,1.4,1,1.9c0.1,0.1,0.2,0.2,0.3,0.3c0.1,0.1,0.3,0.2,0.5,0.3
			c0.1,0.1,0.2,0.1,0.3,0.2c0.2,0.1,0.4,0.1,0.6,0.2c0.1,0.1,0.3,0.2,0.4,0.2c0.5,0,0.9,0.5,1.4,0.4c0,0,0.1,0,0.1,0
			c0.2,0.1,0.4,0.1,0.7,0.2c0.1,0,0.2,0,0.3,0.1c0.2,0.1,0.4,0,0.5-0.1s0.3-0.2,0.5-0.3c0.3-0.2,0.6-0.3,0.8-0.6
			c0.2-0.3,0.4-0.6,0.6-0.9c0.1-0.2,0.3-0.4,0.4-0.6s0.2-0.5,0.3-0.7c0.3-0.7,0.5-1.4,0.6-2.2c0-0.3,0.2-0.7,0.2-1
			c0-1-0.2-1.9-0.8-2.8c-0.3-0.5-0.7-1-1.1-1.4C44.2,8,44,7.8,43.7,7.7c0,0-0.2,0-0.2,0.1c-0.2,0.4-0.4,0.9-0.6,1.2
			c-0.4,0.5-0.8,1-1.2,1.5c-0.5,0.5-1,0.9-1.5,1.3c-0.6,0.5-1.3,0.8-2,1.3c-0.2,0.1-0.4,0.2-0.6,0.3C37.3,13.5,37.1,13.5,36.8,13.5z
			 M35.7,8.9c0.3-0.5,0.5-1,0.7-1.5C36.6,7,36.8,6.6,37,6.2c0.1-0.3,0.2-0.7,0-1c-0.2-0.3-0.4-0.6-0.7-0.9c-0.7-0.7-1.6-1-2.6-1.1
			c-0.6-0.1-1,0.2-1.6,0.4c-0.4,0.1-0.6,0.4-0.8,0.7c-0.1,0.1-0.2,0.2-0.3,0.3c-0.1,0.4-0.2,0.8,0,1.2c0,0.1,0.1,0.3,0.1,0.5
			c0,0.3,0.1,0.6,0.3,0.8c0.3,0.3,0.5,0.7,0.8,0.8c0.4,0.1,0.7,0.3,1.1,0.4c0.6,0.2,1.2,0.1,1.8,0c0.2,0,0.4,0,0.5,0.2
			C35.6,8.8,35.7,8.8,35.7,8.9z M37.1,11.3c2-1,3.7-2.2,4.9-4.2c-0.4-0.2-0.7-0.1-1-0.1c-0.1,0-0.2,0.1-0.2,0.1
			c-0.3,0-0.5,0-0.8,0.1c-0.3,0.1-0.6,0.2-0.9,0.4c-0.7,0.6-1.4,1.2-1.7,2.1C37.2,10.2,36.9,10.7,37.1,11.3z"/>
		<path class="st0" d="M77.5,40.2c0.3,0,0.7,0,1,0c0.4,0,0.8,0,1.2-0.1c0.3,0,0.6-0.2,0.9-0.2c0.6-0.1,1.2-0.3,1.7-0.4
			c1.1-0.3,2.3-0.7,3.4-1.1c0.3-0.1,0.7-0.2,1-0.4c0.4-0.2,0.8-0.1,1.2,0c0.3,0.1,0.4,0.4,0.2,0.6c-0.3,0.4-0.5,0.7-0.9,0.9
			c-0.2,0.1-0.4,0.1-0.6,0.2c-0.3,0.1-0.6,0.2-0.9,0.3c-0.2,0.1-0.3,0.2-0.5,0.2c-0.3,0.1-0.6,0.2-0.9,0.3c0,0,0,0,0,0.1
			c0.2,0,0.4-0.1,0.7-0.1c0.3-0.1,0.6-0.1,0.9-0.2c0.1,0,0.3-0.1,0.4-0.1c0.4-0.2,0.7-0.2,1.1-0.1c0.4,0.1,0.6,0.5,0.4,0.9
			c-0.1,0.2-0.2,0.4-0.4,0.5c-0.3,0.3-0.6,0.3-0.9,0.4c-0.1,0-0.2,0-0.3,0.1c0,0.6-0.2,1-0.6,1.4c-0.2,0.2-0.5,0.3-0.8,0.4
			c-0.7,0.3-1.4,0.6-2.2,0.8c-0.6,0.2-1.2,0.2-1.8,0.4c-0.5,0.1-0.9,0.2-1.4,0.3c-0.3,0.1-0.5,0.1-0.8,0.1c-0.5,0.1-0.9,0.2-1.4,0.3
			c-0.2,0-0.3,0.1-0.5,0.1c-0.9,0-1.7,0.3-2.6,0.2c-0.5-0.1-0.9,0.1-1.4,0.1c-0.2,0-0.5-0.1-0.7-0.1c0,0-0.1,0-0.1,0
			c-0.7,0.2-1.3,0-2-0.1c-0.6-0.1-1.2-0.3-1.9-0.4c-0.3-0.1-0.6-0.1-0.9-0.2c-0.3-0.1-0.7-0.2-1-0.3c-0.3-0.1-0.6-0.3-1-0.5
			c-0.1-0.1-0.3-0.2-0.4-0.1c-0.2,0-0.4-0.1-0.6-0.2c-0.4-0.2-0.8-0.5-1.2-0.7c-0.4-0.2-0.7-0.5-1.1-0.7c-0.4-0.3-0.8-0.6-1.3-0.9
			c-0.2-0.1-0.4-0.3-0.5-0.4c-0.3-0.3-0.5-0.5-0.7-0.8c-0.2-0.2-0.4-0.4-0.6-0.6c-0.4-0.4-0.8-0.8-1.2-1.2c-0.5-0.4-0.9-1-1.3-1.5
			c-0.3-0.3-0.5-1-0.6-1.5c0.6,0,1.1-0.1,1.7,0.2c0.3,0.2,0.6,0.3,0.9,0.5c0.1,0,0.1,0.1,0.1,0.1c0.3,0.5,0.8,0.7,1.2,1.1
			c0.3,0.3,0.6,0.6,0.9,0.9c0.1,0.1,0.2,0.2,0.3,0.2c0,0,0.1,0.1,0.2,0.1c0.4,0.3,0.7,0.6,1,0.9c0.2,0.2,0.4,0.4,0.7,0.5
			c0.1,0,0.1,0.1,0.2,0.2c0.2,0.4,0.6,0.5,0.9,0.7c0.5,0.4,1.1,0.6,1.7,0.9c0.2,0.1,0.3,0.3,0.5,0.3c0.6,0.2,1.2,0.3,1.8,0.5
			c0.6,0.2,1.1,0.4,1.6,0.5c0.5,0.1,0.9,0.1,1.4,0.2c0.6,0.1,1.2,0,1.7,0.2c0,0,0.1,0,0.1,0c0.5-0.2,1,0,1.5,0.1c0.1,0,0.3,0,0.4,0
			c0.1,0,0.3,0,0.4,0c0.1,0,0.2,0,0.3,0c0.3,0,0.6,0,0.9,0c0.1,0,0.2,0,0.3,0c0.5-0.1,0.9-0.1,1.4-0.2c0.4-0.1,0.7-0.1,1.1-0.2
			c-0.1,0-0.2,0-0.3,0c-0.5,0-1,0.1-1.5-0.1c-0.3-0.1-0.4-0.5-0.3-0.7c0.1-0.2,0.2-0.3,0.3-0.5c-0.2,0-0.5,0-0.7,0
			c-0.4,0-0.8-0.2-0.9-0.7c-0.1-0.3,0.1-0.6,0.5-0.8c0.2-0.1,0.3-0.2,0.4-0.2c-0.3-0.1-0.6-0.1-0.9-0.2c-0.2-0.1-0.4-0.5-0.3-0.7
			c0.2-0.4,0.9-0.8,1.4-0.8c0.4,0,0.8-0.1,1.1-0.2c0.4,0,0.7-0.1,1.1-0.1c0.3-0.1,0.6-0.2,0.9-0.2c0.6-0.2,1.3-0.3,1.9-0.4
			c1.1-0.3,2.1-0.5,3.2-1c0.3-0.1,0.5-0.2,0.8-0.3c0.3,0,0.6,0,0.8,0.1c0.3,0.1,0.4,0.5,0.2,0.7c-0.2,0.3-0.5,0.6-0.8,0.8
			c-0.2,0.1-0.4,0.2-0.7,0.3c-0.2,0.1-0.4,0.2-0.6,0.3c-0.1,0-0.2,0-0.4,0.1c-0.4,0.2-0.8,0.3-1.3,0.5c-0.3,0.1-0.5,0.1-0.8,0.2
			c-0.4,0.1-0.9,0.3-1.3,0.4c-0.5,0.1-0.9,0.1-1.4,0.2c-0.3,0.1-0.6,0.2-0.9,0.2C78.3,40,77.9,40.1,77.5,40.2
			C77.5,40.2,77.5,40.2,77.5,40.2z M83.7,40.9C83.7,40.9,83.7,40.9,83.7,40.9c-0.4,0-0.7,0.1-1,0.2c0,0,0,0.1,0,0.1
			C83,41.1,83.3,41,83.7,40.9z"/>
		<path class="st0" d="M22.8,64.9c-0.1,0.1-0.2,0.3-0.4,0.4c-0.2,0.2-0.7,0.2-0.8-0.1c-0.2-0.2-0.4-0.5-0.5-0.7
			c-0.4-0.8-0.8-1.5-1-2.4c-0.2-0.7-0.3-1.4-0.5-2c-0.2-0.5-0.4-1-0.6-1.5c0-0.1-0.1-0.3-0.1-0.4c0-0.7-0.2-1.3-0.4-1.9
			c-0.2-0.5-0.3-1-0.5-1.5c0-0.1-0.1-0.3-0.1-0.4c-0.1-0.3-0.1-0.6-0.2-0.8c-0.1-0.3-0.2-0.6-0.2-0.8c0-0.3-0.1-0.6-0.3-0.9
			c-0.2-0.5-0.3-1.1-0.5-1.7c-0.3-1.1-0.4-2.3-0.5-3.5c0-0.7-0.1-1.5-0.2-2.2c0-0.9,0-1.8,0.2-2.7c0.1-1,0.3-1.9,0.6-2.8
			c0.1-0.5,0.2-0.9,0.4-1.4c0.1-0.2,0.2-0.4,0.3-0.6c0,0,0-0.1,0.1-0.1c0.2-0.4,0.3-0.8,0.5-1.3c0.1-0.3,0.3-0.6,0.5-1
			c0-0.1,0.1-0.1,0.1-0.2c0.3-0.6,0.7-1.2,1.2-1.7c0.1-0.1,0.1-0.3,0.2-0.4c0.2-0.2,0.4-0.4,0.6-0.7c0.2-0.2,0.3-0.4,0.5-0.6
			c0.3-0.3,0.6-0.7,1-1c0.4-0.4,0.7-0.8,1.1-1.1c0.2-0.2,0.4-0.3,0.6-0.4c0.2-0.2,0.5-0.5,0.7-0.7c0.1-0.1,0.2-0.2,0.4-0.3
			c0.3-0.3,0.7-0.5,1-0.8c0.3-0.2,0.5-0.4,0.8-0.6c0.1-0.1,0.3-0.1,0.5-0.2c0.2-0.1,0.3-0.3,0.5-0.4c0.2-0.1,0.4-0.2,0.6-0.3
			c0.4-0.3,0.8-0.6,1.3-0.9c0.2-0.1,0.5-0.2,0.7-0.4c0.1,0,0.2-0.1,0.2-0.1c0.3-0.4,0.7-0.6,1.1-0.7c0.1,0,0.2-0.1,0.2-0.2
			c0.2-0.3,0.4-0.4,0.7-0.4c0.2,0,0.4-0.1,0.6-0.1c0.2,0,0.4,0.1,0.5,0.3c0.1,0.2,0.2,0.5,0.2,0.7c0,0.3-0.2,0.6-0.4,0.8
			c-0.3,0.2-0.5,0.4-0.8,0.6c-0.4,0.2-0.7,0.5-1.1,0.7c-0.2,0.1-0.4,0.2-0.5,0.3c-0.6,0.4-1.1,0.8-1.7,1.2c-0.3,0.2-0.6,0.4-0.9,0.6
			c-0.2,0.1-0.4,0.2-0.6,0.3c-0.4,0.3-0.8,0.7-1.2,1c-0.1,0.1-0.2,0.2-0.3,0.2c-0.4,0.2-0.7,0.6-1.1,0.9c-0.2,0.2-0.5,0.3-0.7,0.5
			c-0.4,0.4-0.9,0.8-1.3,1.2c-0.3,0.3-0.5,0.6-0.7,0.9c-0.1,0.2-0.3,0.3-0.4,0.4c-0.2,0.3-0.3,0.6-0.6,0.8c-0.4,0.3-0.6,0.7-0.8,1.1
			c-0.3,0.6-0.6,1.1-0.9,1.7c-0.1,0.3-0.3,0.6-0.4,0.9c-0.1,0.2-0.1,0.4-0.2,0.6c-0.1,0.3-0.2,0.6-0.4,0.8c0,0.1-0.1,0.2-0.1,0.3
			c-0.1,0.6-0.3,1.3-0.4,1.9c-0.1,0.5-0.2,1.1-0.2,1.6c0,0.4-0.1,0.7-0.1,1.1c0,0.1,0,0.2,0,0.3c0,0.4,0,0.7,0,1.1
			c0,0.2,0.1,0.3,0.1,0.5c0,0.4,0,0.9,0.1,1.3c0.1,0.5,0.2,1.1,0.3,1.6c0,0.2,0.1,0.5,0.1,0.7c0.1,0.5,0.2,0.9,0.3,1.4
			c0.1,0.3,0.1,0.6,0.1,0.8c0,0.1,0,0.1,0,0.2c0.3,0.5,0.4,1,0.6,1.5c0.2,0.6,0.4,1.2,0.6,1.8c0.2,0.5,0.4,1,0.5,1.6
			c0.1,0.5,0.2,0.9,0.4,1.4c0.2,0.5,0.4,0.9,0.7,1.3c0.7,1.1,1.4,2.2,2.1,3.4c0.2,0.4,0.5,0.7,0.7,1.1c0.3,0.6,0.3,1.3-0.2,1.8
			c-0.2,0.2-0.6,0.2-0.8,0C23.1,65.3,22.9,65.1,22.8,64.9z"/>
		<path class="st0" d="M48.9,21.7c0-0.4,0.5-0.9,0.8-1c0.4-0.1,0.7-0.1,1.1-0.1c0.1,0,0.2,0.1,0.3,0.1c0.3,0.1,0.6,0.2,0.8,0.2
			c0.1,0,0.1,0,0.2,0.1c0.2,0.1,0.5,0.3,0.8,0.2c0.2,0,0.5,0.2,0.8,0.3c0.7,0.4,1.4,0.8,2.1,1.3c0.4,0.3,0.7,0.6,1,0.9
			c0.3,0.3,0.6,0.5,0.9,0.8c0.1,0.1,0.2,0.2,0.2,0.2c0.2,0.2,0.4,0.4,0.6,0.6c0.2,0.2,0.4,0.3,0.6,0.5c0.5,0.4,0.9,0.8,1.4,1.3
			c0.2,0.2,0.4,0.5,0.6,0.8c0.3,0.4,0.7,0.7,1,1.1c0.3,0.3,0.5,0.5,0.8,0.8c0.2,0.2,0.3,0.4,0.5,0.6c0.1,0.1,0.3,0.2,0.4,0.3
			c0.1,0.1,0.2,0.1,0.3,0.2c0.2,0.4,0.5,0.5,0.8,0.8c0.4,0.3,0.7,0.6,1,0.9c0.1,0.1,0.2,0.1,0.3,0.1c0.3,0.2,0.6,0.4,0.9,0.5
			c0.1,0,0.1,0.1,0.2,0.1c0.1,0.2,0.2,0.2,0.4,0.2c0.1,0,0.2,0.1,0.3,0.2c0.4,0.2,0.9,0.5,1.3,0.7c0.3,0.1,0.6,0.2,0.8,0.3
			c0.5,0.2,0.9,0.3,1.4,0.5c0.2,0.1,0.4,0.2,0.7,0.4c0.1,0,0.1,0,0.2,0.1c0.4,0.1,0.9,0.2,1.3,0.3c0.2,0,0.3,0,0.5,0.1
			c0.2,0.1,0.5,0.1,0.7,0.2c0.1,0,0.2,0.1,0.3,0.1c0.5,0,1,0,1.5,0c0,0,0.1,0,0.1,0c0.3,0.2,0.6,0,0.9,0c0.3,0,0.7,0,1-0.1
			c0.5-0.1,0.9-0.2,1.3-0.3c0.1,0,0.3-0.1,0.4-0.1c0.5,0,0.9-0.1,1.3-0.1c0.3,0,0.6,0,0.9,0c0.3,0,0.4,0.2,0.2,0.4
			c-0.1,0.1-0.2,0.2-0.3,0.3c-0.5,0.3-1,0.7-1.6,0.8c-0.2,0-0.4,0.2-0.7,0.3c-0.4,0.1-0.9,0.2-1.3,0.3c-0.5,0.1-1,0.2-1.5,0.2
			c-0.2,0-0.5,0-0.7,0c-0.2,0-0.5,0.1-0.7,0.1c-0.3,0-0.6,0-0.9,0c-0.6,0-1.2-0.1-1.7-0.2c-0.5-0.1-0.9-0.2-1.4-0.3
			c-0.3-0.1-0.7-0.3-1-0.4c-0.2-0.1-0.5,0-0.7-0.1c-0.5-0.2-1-0.4-1.6-0.6c-0.3-0.1-0.6-0.2-0.9-0.4c-0.3-0.1-0.7-0.3-1-0.4
			c-0.1-0.1-0.3-0.1-0.4-0.2c-0.1,0-0.2-0.1-0.2-0.1c-0.1-0.2-0.2-0.3-0.4-0.3c-0.3,0-0.4-0.2-0.6-0.3c-0.1-0.1-0.2-0.1-0.3-0.2
			c-0.1-0.1-0.2-0.2-0.4-0.3c-0.1-0.1-0.2-0.1-0.3-0.2c-0.1-0.1-0.2-0.1-0.4-0.2c-0.2-0.1-0.3-0.2-0.5-0.3c-0.1-0.1-0.2-0.2-0.3-0.3
			c-0.3-0.2-0.5-0.4-0.8-0.7c-0.2-0.2-0.3-0.4-0.5-0.6c-0.1-0.1-0.1-0.2-0.2-0.2c-0.2-0.2-0.5-0.4-0.7-0.6c-0.1-0.1-0.2-0.2-0.3-0.3
			c-0.3-0.3-0.5-0.5-0.8-0.8c-0.2-0.2-0.3-0.4-0.5-0.5c-0.2-0.2-0.5-0.4-0.7-0.7c-0.2-0.2-0.3-0.3-0.5-0.5c-0.2-0.2-0.4-0.4-0.6-0.6
			c-0.3-0.2-0.6-0.5-0.8-0.7c-0.2-0.2-0.3-0.4-0.5-0.6c-0.3-0.3-0.7-0.6-1-0.9c-0.3-0.2-0.5-0.5-0.7-0.8c0,0,0-0.1-0.1-0.1
			c-0.4-0.1-0.7-0.4-1-0.7c-0.5-0.4-1.1-0.7-1.7-0.9c0,0-0.1,0-0.1-0.1c-0.1-0.3-0.4-0.3-0.6-0.3c-0.1,0-0.3-0.1-0.4-0.1
			c-0.4-0.1-0.8-0.2-1.2-0.3C49,22.4,48.9,22.1,48.9,21.7z"/>
		<path class="st0" d="M24.6,51.1c-0.1-0.6-0.2-1.2-0.2-1.9c0-1,0.1-2,0.1-3c0-0.6,0.1-1.2,0.2-1.8c0.1-0.6,0.2-1.1,0.4-1.7
			c0.1-0.5,0.2-1,0.4-1.4c0.1-0.5,0.3-0.9,0.4-1.4c0.2-0.5,0.4-1.1,0.7-1.6c0.2-0.4,0.4-0.8,0.7-1.1c0.2-0.3,0.4-0.6,0.6-0.9
			c0.2-0.4,0.5-0.8,0.8-1.2c0.3-0.4,0.7-0.8,1.1-1.2c0.5-0.6,0.9-1.1,1.5-1.7c0.4-0.4,0.7-0.7,1.2-1.1c0.2-0.2,0.5-0.2,0.8-0.1
			c0.1,0,0.2,0.1,0.2,0.1c0.3,0.3,0.3,0.9,0.1,1.3c-0.2,0.4-0.5,0.7-0.8,0.9c-0.5,0.4-0.9,0.9-1.4,1.4c-0.2,0.2-0.4,0.3-0.5,0.5
			c-0.2,0.2-0.3,0.4-0.4,0.6c-0.5,0.6-0.9,1.2-1.4,1.8c-0.2,0.2-0.3,0.4-0.4,0.7c-0.2,0.4-0.4,0.8-0.6,1.2c-0.2,0.4-0.3,0.8-0.5,1.2
			c-0.2,0.5-0.3,1-0.5,1.4c-0.1,0.4-0.1,0.8-0.2,1.2c0,0.2-0.1,0.4-0.1,0.6c-0.1,0.5-0.1,1-0.2,1.5c0,0.2-0.1,0.4-0.1,0.5
			c0,0.2,0,0.5,0,0.7c0,0.3,0,0.5,0,0.7c0,0.4,0,0.8,0,1.3c0,0.3,0,0.5,0,0.8c0,0.3,0,0.6,0.1,0.9c0,0.3,0.1,0.6,0.2,0.9
			c0.1,0.3,0.1,0.5,0.2,0.8c0.1,0.4,0.2,0.8,0.3,1.2c0.1,0.4,0.3,0.9,0.4,1.3c0.1,0.3,0.3,0.6,0.3,0.9c0,0.6,0.5,1,0.7,1.6
			c0.2,0.7,0.7,1.2,1.1,1.7c0.2,0.3,0.1,0.6,0,0.8c0,0.1-0.1,0.3-0.2,0.4c-0.3,0.4-0.9,0.4-1.3,0c-0.3-0.4-0.5-0.9-0.8-1.3
			c-0.4-0.7-0.6-1.4-0.9-2.1c-0.5-1.2-0.8-2.5-1.2-3.7C24.8,52.4,24.7,51.7,24.6,51.1C24.6,51.1,24.6,51.1,24.6,51.1z"/>
		<path class="st0" d="M21.8,55.9c0.1,0.1,0.3,0.2,0.4,0.3c0.6,1,1.2,2,1.8,3.1c0.4,0.8,0.8,1.6,1.3,2.4c0.3,0.6,0.7,1.1,1.1,1.7
			c0,0,0.1,0.1,0.1,0.1c0.5,0.2,0.7,0.7,0.8,1.1c0,0.2,0,0.3-0.1,0.5c-0.1,0.3-0.2,0.5-0.5,0.7c-0.1,0.1-0.6,0-0.7-0.1
			c-0.2-0.2-0.4-0.6-0.6-0.7c-0.4-0.3-0.6-0.7-0.8-1.1c-0.2-0.4-0.5-0.8-0.8-1.2c-0.4-0.6-0.7-1.2-1-1.8c-0.2-0.4-0.3-0.7-0.5-1.1
			c-0.2-0.4-0.4-0.7-0.6-1c-0.4-0.6-0.7-1.2-0.6-1.9C21,56.4,21.5,56,21.8,55.9z"/>
		<path class="st0" d="M28.6,64.4c-0.3,0-0.5-0.1-0.7-0.1c-0.5-0.1-0.7-0.5-1-0.8c-0.3-0.3-0.5-0.7-0.7-1c-0.4-0.6-0.7-1.2-1-1.8
			c-0.2-0.4-0.5-0.9-0.7-1.3c-0.2-0.4-0.4-0.8-0.6-1.3c-0.2-0.5-0.4-1.1-0.6-1.6c-0.1-0.4,0.1-0.7,0.5-0.8c0.1,0,0.2,0,0.3,0
			c0.4,0.2,0.7,0.4,0.9,0.8c0.2,0.4,0.4,0.8,0.6,1.2c0.1,0.3,0.2,0.6,0.4,0.9c0.1,0.3,0.3,0.6,0.5,0.9c0.4,0.7,0.8,1.5,1.3,2.2
			c0.2,0.4,0.5,0.7,0.7,1c0.2,0.3,0.4,0.7,0.6,1C29.1,64,28.9,64.4,28.6,64.4z"/>
		<path class="st0" d="M35.7,8.9c-0.1-0.1-0.1-0.1-0.1-0.2c-0.1-0.2-0.3-0.3-0.5-0.2c-0.6,0-1.2,0.2-1.8,0c-0.4-0.1-0.7-0.3-1.1-0.4
			c-0.3-0.1-0.5-0.5-0.8-0.8c-0.2-0.2-0.3-0.5-0.3-0.8C31.1,6.2,31,6,31,5.9c-0.1-0.4-0.1-0.8,0-1.2c0-0.1,0.2-0.2,0.3-0.3
			c0.2-0.3,0.4-0.6,0.8-0.7c0.5-0.2,1-0.5,1.6-0.4c1,0.1,1.9,0.4,2.6,1.1c0.3,0.3,0.5,0.6,0.7,0.9c0.2,0.3,0.1,0.7,0,1
			c-0.1,0.4-0.3,0.8-0.5,1.2C36.2,7.9,36,8.3,35.7,8.9z"/>
		<path class="st0" d="M37.1,11.3c-0.2-0.6,0.1-1,0.3-1.5c0.3-0.9,0.9-1.5,1.7-2.1c0.3-0.2,0.6-0.4,0.9-0.4c0.3-0.1,0.5-0.1,0.8-0.1
			C40.8,7.1,40.9,7,41,7c0.3,0,0.7-0.2,1,0.1C40.8,9,39.1,10.3,37.1,11.3z"/>
		<path class="st0" d="M83.7,40.9c-0.3,0.1-0.7,0.2-1,0.3c0,0,0-0.1,0-0.1C83,41,83.3,40.9,83.7,40.9C83.7,40.9,83.7,40.9,83.7,40.9
			z"/>
		<path class="st0" d="M42.9,14.5c0-0.5,0.2-0.9,0.6-1.3c0.2-0.1,0.1-0.4,0.1-0.6c0-0.6,0-1.2,0-1.7c0-0.3,0.3-0.5,0.5-0.6
			c0.2-0.1,0.4,0,0.5,0.2c0.3,0.5,0.6,0.9,0.6,1.5c0,0.3,0.1,0.7,0.1,1c0,0.2-0.1,0.3-0.1,0.5c0,0.4-0.2,0.7-0.4,1
			c-0.3,0.4-0.6,0.8-1.1,0.9c-0.2,0-0.5-0.1-0.6-0.2C43,15.1,42.9,14.8,42.9,14.5z"/>
		<path class="st0" d="M41.3,16c0-0.2,0-0.5,0.2-0.6c0.2-0.1,0.4,0.2,0.6,0.3c0.1,0.1,0.3,0.2,0.5,0.2c0.4,0.1,0.8,0.2,1.2,0.2
			c0.2,0,0.4,0.1,0.5,0.3c0.1,0.2,0.2,0.5-0.1,0.7c-0.2,0.2-0.4,0.3-0.6,0.4c-0.2,0.1-0.5,0.2-0.7,0c-0.1,0-0.2-0.1-0.2-0.1
			C41.9,17.4,41.3,16.7,41.3,16z"/>
		<path class="st0" d="M42.8,12.1c0,0.6-0.2,1-0.6,1.2c-0.3,0.2-0.7,0.1-0.8-0.2c-0.3-0.6-0.2-1.5,0.3-1.9c0.3-0.3,0.8-0.1,0.9,0.2
			C42.6,11.7,42.7,11.9,42.8,12.1z"/>
	</g>
	<g>
		
			<linearGradient id="SVGID_1_" gradientUnits="userSpaceOnUse" x1="30.4115" y1="57.6734" x2="70.8613" y2="57.6734" gradientTransform="matrix(1 0 0 -1 0 102)">
			<stop  offset="0" style="stop-color:#FF6600"/>
			<stop  offset="1" style="stop-color:#F4AC2B"/>
		</linearGradient>
		<path class="st1" d="M34.1,42.2c0-1.1,0-2.3,0.1-3.4c0-0.2,0-0.4,0-0.6c0-0.3-0.1-0.7-0.1-1c0-1.5,0.1-2.9,0-4.4
			c0-1.2-0.2-2.4-0.2-3.6c0-1.1-0.3-2.2-0.5-3.3c-0.1-0.9-0.3-1.8-0.4-2.7c-0.1-0.9,0.2-1.6,0.9-2.1c0.3-0.2,0.7-0.4,1.1-0.5
			c0.5-0.2,1.1-0.4,1.6-0.6c0.5-0.2,1-0.2,1.4,0.3c0.1,0.2,0.4,0.3,0.6,0.4c0.4,0.3,0.6,0.8,0.5,1.3c-0.1,1,0.3,1.8,0.8,2.5
			c0.1,0.1,0.2,0.2,0.2,0.3c0.2,0.5,0.6,0.8,0.9,1.2c0.6,0.6,1.3,0.6,2.1,0.6c0.7,0,1.2-0.3,1.7-0.6c0.4-0.2,0.5-0.5,0.6-0.9
			c0.2-0.7,0.2-1.4,0-2.2c-0.2-0.7-0.3-1.4-0.5-2.1c-0.1-0.3,0-0.7,0.1-1c0.1-0.4,0.4-0.7,0.9-0.7c0.8,0,1.7-0.1,2.5,0.2
			c0.3,0.1,0.6,0.1,0.8,0.2c0.6,0.1,0.7,0.6,0.9,1c0,0,0,0.1,0,0.1c0.2,1.6,0.9,3.1,1.4,4.6c0.4,1.2,0.8,2.3,1.2,3.5
			c0.1,0.3,0.3,0.6,0.4,0.9c0.4,0.7,0.7,1.5,1,2.3c0.2,0.6,0.4,1.2,0.6,1.7c0.5,1.5,1.3,2.8,2,4.2c0.4,0.8,0.9,1.6,1.3,2.5
			c0.6,1.5,1.5,2.9,2.2,4.3c0.6,1.3,1.4,2.5,2,3.8c0.6,1.2,1.2,2.4,1.9,3.6c0.6,1.1,1.1,2.2,1.7,3.3c0.5,1,1.1,1.9,1.7,2.9
			c0.8,1.5,1.7,3,2.4,4.5c0.3,0.6,0.7,1.2,0.7,1.9c0,0.5-0.1,0.8-0.4,1.2c-0.2,0.2-0.4,0.2-0.6,0.2c-0.7-0.1-1.5,0-2.2,0.4
			c-0.4,0.2-0.7,0.3-1.1,0.4c-0.4,0.1-0.8,0.2-1.2,0.3c-0.6,0.2-1.3,0.3-1.9,0.5c-0.8,0.2-1.7,0.5-2.5,0.7c-0.7,0.2-1.4,0.4-2.1,0.4
			c-0.3,0-0.7,0.2-1,0.3c-0.6,0.1-1.2,0.3-1.8,0.2c-1,0.4-2,0.2-3.1,0.4c-0.4,0.1-0.8,0.1-1.3,0.1c-0.9,0-1.8,0.1-2.7,0
			c-0.4,0-0.8-0.1-1.2-0.1c-0.4,0-0.8,0-1.1,0c-0.6,0.1-1.2,0-1.7,0c-0.3,0-0.6,0-0.9,0c-0.8,0-1.6,0-2.4-0.1
			c-0.2,0-0.5-0.1-0.7-0.1c-0.5,0-1,0-1.5,0c-0.9-0.1-1.9-0.2-2.8-0.3c-0.4,0-0.8,0-1.2-0.3c0,0-0.2,0-0.2,0c-0.2,0-0.3,0-0.5,0
			c-0.9-0.1-1.9-0.2-2.8-0.3c-0.2,0-0.4-0.1-0.6-0.1c-0.5-0.1-0.8-0.4-0.9-0.9c-0.1-0.3-0.1-0.6,0-0.9c0.2-0.9,0.4-1.8,0.5-2.7
			c0.2-1.1,0.4-2.2,0.6-3.3c0-0.1,0-0.2,0-0.4c0-0.5,0-0.9,0.1-1.4c0.1-0.6,0.2-1.2,0.2-1.7c0.1-0.8,0.2-1.7,0.5-2.5
			c0.2-0.6,0.3-1.2,0.3-1.8c0-0.8,0.3-1.6,0.5-2.3c0.2-0.8,0.4-1.5,0.4-2.3c0-0.7,0.2-1.4,0.3-2c0.1-0.7,0.1-1.4,0.2-2.1
			C34,43.3,34.1,42.7,34.1,42.2C34.1,42.2,34.1,42.2,34.1,42.2z"/>
	</g>
</g>
</svg>
