<?xml version="1.0" encoding="utf-8"?>
<!-- Generator: Adobe Illustrator 27.9.0, SVG Export Plug-In . SVG Version: 6.00 Build 0)  -->
<svg version="1.1" id="Layer_1" xmlns="http://www.w3.org/2000/svg" xmlns:xlink="http://www.w3.org/1999/xlink" x="0px" y="0px"
	 viewBox="0 0 100 100" style="enable-background:new 0 0 100 100;" xml:space="preserve">
<style type="text/css">
	.st0{fill:#290852;}
	.st1{fill:url(#SVGID_1_);}
	.st2{fill:url(#SVGID_00000047037853110863781050000016559950565086058670_);}
	.st3{fill:url(#SVGID_00000073001109367572917610000014905470849448433293_);}
	.st4{fill:url(#SVGID_00000096778823354625318480000011122240999619997571_);}
</style>
<g>
	<g>
		<path class="st0" d="M77.3,78.7c0.2-0.4,0.4-0.9,0.6-1.2c0.5-0.8,1-1.6,1.6-2.4c0.1-0.1,0.2-0.2,0.2-0.3c0.4-0.8,0.8-1.5,1.3-2.2
			c0.4-0.5,0.7-1.1,1-1.7c0.4-0.7,0.8-1.4,1.3-2c0.3-0.4,0.3-0.9,0.5-1.3c-0.5,0.1-1,0.3-1.4,0.6c-0.9,0.6-1.6,1.3-2.3,2.2
			c-0.1,0.1-0.2,0.3-0.3,0.4c-0.1,0.2-0.3,0.2-0.5,0.1c-0.4-0.2-0.9-0.5-1.3-0.7c-0.8-0.5-1.6-1-2.3-1.5c-0.9-0.7-1.8-1.3-2.5-2.1
			c-0.3-0.4-0.8-0.7-1.2-1c-0.3-0.3-0.6-0.7-1-1.1c-0.1-0.1-0.1-0.1-0.2-0.2c-0.4-0.4-0.8-0.7-1.2-1.1c-0.1-0.1-0.2-0.2-0.3-0.4
			c-0.7-0.7-1.3-1.4-2-2.1c-0.9-0.9-1.7-1.8-2.6-2.7c-0.9-0.9-1.7-1.7-2.6-2.6c-0.5-0.5-1.1-0.9-1.6-1.4c-0.6-0.6-1.2-1.2-1.8-1.7
			c-0.5-0.4-1-0.8-1.4-1.3c-0.6-0.6-1.3-1.1-1.7-1.8c-0.1-0.1-0.3-0.2-0.4-0.4c-0.2-0.2-0.4-0.4-0.6-0.7c-0.3-0.4-0.7-0.9-1-1.3
			c-0.2-0.2-0.3-0.5-0.1-0.8c0.2-0.2,0.5-0.2,0.9-0.1c0.1,0,0.1,0,0.2,0.1c0.5,0.5,1.2,0.8,1.6,1.5c0.1,0.2,0.3,0.3,0.5,0.4
			c0.3,0.3,0.7,0.6,1,0.9c0.4,0.3,0.6,0.7,1,1c0.8,0.6,1.5,1.4,2.3,1.9c0.3,0.2,0.5,0.4,0.7,0.7c0.2,0.2,0.5,0.4,0.7,0.6
			c0.7,0.6,1.4,1.2,2,1.9c0.4,0.4,0.8,0.7,1.2,1.1c0.5,0.6,1.2,1.2,1.7,1.7c0.1,0.1,0.3,0.3,0.4,0.4c0.1,0.2,0.3,0.4,0.5,0.6
			c0.3,0.2,0.5,0.5,0.7,0.8c0.5,0.6,1,1.1,1.6,1.7c0.3,0.4,0.6,0.8,1,1.2c0.1,0.2,0.3,0.3,0.5,0.5c0.5,0.4,1,0.8,1.5,1.4
			c0.2,0.3,0.5,0.5,0.8,0.7c0.5,0.4,1,0.8,1.4,1.1c0.1,0.1,0.2,0.1,0.2,0.2c0.1,0.2,0.2,0.2,0.4,0.3c0.4,0.2,0.7,0.4,1,0.6
			c0.3,0.2,0.7,0.4,1,0.7c0.4,0.3,0.8,0.6,1.2,1c0.1,0,0.1,0.1,0.2,0.1c0.5-0.9,1.3-1.7,2.1-2.3c0.7-0.5,1.4-0.9,2.2-1.1
			c0.5-0.2,1.2,0.2,1.4,0.8c0.3,1,0.1,2-0.4,2.9c-0.3,0.6-0.6,1.2-0.9,1.7c-0.3,0.6-0.7,1.1-1.1,1.6c-0.2,0.3-0.4,0.7-0.6,1
			c-0.3,0.5-0.6,1.1-0.9,1.6c-0.6,0.9-1.1,1.8-1.6,2.7c-0.4,0.6-0.8,1.3-1.2,1.9c-0.1,0.1,0,0.3,0,0.4c0.1,0.6-0.2,1-0.8,1
			c-0.1,0-0.2,0-0.3,0c-0.6-0.2-1.1-0.5-1.7-0.7c-0.4-0.2-0.8-0.4-1.2-0.6c-0.4-0.2-0.8-0.4-1.2-0.6c-0.2-0.1-0.3-0.2-0.4-0.2
			c-0.3-0.1-0.6-0.2-0.7-0.5c-0.1-0.1-0.2-0.2-0.3-0.2c-0.5-0.2-0.9-0.5-1.4-0.7c-0.1,0-0.2-0.1-0.2-0.1c-0.4-0.4-1.1-0.6-1.5-1
			c-0.6-0.7-1.5-1-2.2-1.6c-0.5-0.5-1-0.9-1.6-1.3c-0.1-0.1-0.2-0.2-0.3-0.3c-0.2-0.2-0.4-0.4-0.6-0.5c-0.2-0.1-0.4-0.3-0.6-0.5
			c-0.1-0.1-0.2-0.2-0.3-0.3c-0.6-0.6-1.3-1.3-2-1.9c-0.7-0.6-1.3-1.4-2-2.1c-0.8-0.8-1.6-1.6-2.3-2.5c-0.6-0.6-1.3-1.3-1.8-1.9
			c-0.6-0.7-1.1-1.4-1.6-2.1c-0.2-0.2-0.4-0.4-0.5-0.6c-0.4-0.6-0.7-1.1-1.1-1.7c-0.1-0.1-0.2-0.2-0.2-0.3c-0.4-0.4-0.5-0.9-0.6-1.3
			c0-0.2,0-0.4,0.1-0.5c0.1-0.4,0.5-0.5,0.8-0.2c0.3,0.2,0.5,0.5,0.7,0.8c0.1,0.1,0.2,0.2,0.3,0.3c0.1,0.2,0.3,0.3,0.4,0.5
			c0.1,0.1,0.2,0.2,0.3,0.3c0.2,0.2,0.4,0.5,0.6,0.8c0.3,0.4,0.6,0.7,0.9,1.1c0.3,0.3,0.6,0.6,0.8,0.9c0.5,0.5,0.9,1,1.4,1.5
			c0.2,0.2,0.4,0.4,0.6,0.6c0.6,0.6,1.3,1.1,1.8,1.8c0.2,0.3,0.6,0.5,0.8,0.8c0.5,0.5,1,0.9,1.4,1.4c0.2,0.3,0.6,0.5,0.8,0.8
			c0.2,0.3,0.6,0.6,1,0.9c0.2,0.2,0.5,0.5,0.7,0.7c0.2,0.2,0.4,0.3,0.5,0.4c0.4,0.5,0.9,0.8,1.4,1.2c0.3,0.3,0.6,0.6,1,0.8
			c0.2,0.2,0.4,0.3,0.6,0.5c0.3,0.2,0.5,0.4,0.8,0.6c0.2,0.2,0.5,0.3,0.7,0.5c0.2,0.1,0.5,0.3,0.7,0.4c0.5,0.4,1,0.8,1.6,1.1
			c0.4,0.2,0.6,0.6,1.1,0.7c0.6,0.2,1.1,0.6,1.7,0.9c0.3,0.1,0.5,0.3,0.8,0.4c0.4,0.3,0.9,0.6,1.5,0.8C76.7,78.4,77,78.6,77.3,78.7z
			"/>
		<path class="st0" d="M40.5,45.6c0.3,0.6,0.2,1.1,0,1.5c-0.5,1.2-1.1,2.3-1.6,3.5c-0.3,0.7-0.7,1.4-1.1,2.1c-0.5,0.9-1,1.9-1.5,2.8
			c-0.2,0.3-0.3,0.6-0.5,0.8c-0.4,0.7-0.8,1.4-1.3,2.1c-0.6,0.9-1.1,1.7-1.7,2.5c-0.9,1.3-1.7,2.5-2.6,3.8c-0.4,0.7-0.9,1.3-1.3,2
			c-0.6,1.1-1.1,2.2-1.3,3.5c-0.3,1.6-0.1,3,0.4,4.5c0.2,0.5,0.3,0.9,0.5,1.3c0.2,0.5,0.6,1,0.9,1.5c0.1,0.2,0.3,0.5,0.4,0.7
			c0.2,0.5,0.5,0.8,0.8,1.2c0.2,0.2,0.2,0.4,0.4,0.6c0.3,0.4,0.6,0.7,0.8,1.2c0.2,0.3,0.6,0.5,0.8,0.8c0.2,0.3,0.5,0.6,0.7,0.9
			c0.1,0.1,0.1,0.2,0.2,0.2c0.3,0.1,0.4,0.3,0.5,0.6c0,0.1,0.1,0.2,0.2,0.2c0.2,0.1,0.3,0.2,0.4,0.5c0,0.1,0.1,0.1,0.2,0.2
			c0.9,0.8,1.7,1.6,2.3,2.5c0.1,0.2,0.3,0.4,0.5,0.5c0.4,0.3,0.7,0.7,1,1.2c0.1,0.3,0.3,0.6,0.5,0.9c0.2,0.4,0.1,0.8,0,1.2
			c-0.2,0.4-0.3,0.8-0.4,1.2c-0.2,0.7-0.4,1.3-0.6,2c0,0.1-0.1,0.2-0.1,0.2c-0.1,0.6,0.6,1.7,1.2,1.9c0.1,0,0.3,0,0.4,0
			c0.4-0.1,0.7-0.3,1.1-0.5c0.1-0.1,0.2-0.2,0.3-0.3c0.1-0.2,0.1-0.5,0.2-0.8c0.2-0.6,0.4-1.3,0.7-1.9c0.4-1.2,0.9-2.4,1.3-3.6
			c0.3-0.9,0.4-1.8,0.3-2.7c-0.1-0.6-0.1-1.2-0.2-1.7c-0.1-0.4-0.2-0.9-0.4-1.3c-0.1-0.4-0.2-0.9-0.4-1.3c-0.2-0.5-0.5-0.9-0.8-1.4
			c-0.3-0.5-0.5-1-0.8-1.5c-0.2-0.3-0.4-0.6-0.6-0.9c-0.3-0.5-0.7-1.1-1-1.6c-0.1-0.1-0.1-0.2-0.2-0.3c-0.9-1-1.3-2.2-1.7-3.5
			c-0.3-1-0.5-2.1-0.4-3.2c0-0.2,0.1-0.4,0.1-0.6c0.2-0.9,0.3-1.9,0.7-2.7c0.3-0.7,0.7-1.4,1.2-2c0.3-0.4,0.7-0.9,0.9-1.3
			c0.5-0.8,1-1.6,1.6-2.4c0.4-0.6,0.9-1.1,1.3-1.7c0.2-0.3,0.5-0.5,0.7-0.8c0.2-0.2,0.4-0.5,0.5-0.8c0.1-0.4,0.3-0.6,0.5-0.5
			c0.3,0,0.5,0.3,0.6,0.6c0,0.4-0.1,0.7-0.3,1c-0.2,0.3-0.4,0.6-0.6,0.9c-0.4,0.6-0.9,1.2-1.3,1.9c-0.5,0.7-1,1.4-1.5,2.1
			c-0.4,0.5-0.8,1.1-1.1,1.6c-0.2,0.3-0.4,0.7-0.6,1c-0.4,0.8-0.7,1.5-1,2.3c0,0.1-0.1,0.2-0.1,0.2c0,0.9,0,1.8,0.1,2.7
			c0,0.3,0.2,0.5,0.2,0.8c0.3,0.7,0.6,1.4,1,2.1c0.4,0.6,0.7,1.3,1.1,1.8c0.2,0.3,0.4,0.6,0.6,1c0.2,0.3,0.4,0.6,0.6,0.9
			c0.2,0.2,0.3,0.5,0.4,0.8c0,0,0,0.1,0,0.1c0.4,0.2,0.4,0.7,0.7,1.1c0.3,0.4,0.5,0.8,0.6,1.2c0.3,0.9,0.6,1.9,0.8,2.9
			c0.1,0.4,0.2,0.8,0.2,1.2c0.2,0.8,0.2,1.5,0,2.3c0,0.1-0.1,0.2,0,0.3c0.1,1-0.3,2-0.6,3c-0.2,0.7-0.6,1.4-0.8,2.1
			c-0.2,0.4-0.3,0.8-0.4,1.3c-0.2,0.4-0.3,0.8-0.5,1.2c-0.1,0.2-0.1,0.4-0.1,0.6c0.2,0.6-0.1,1.1-0.6,1.4c-0.4,0.3-0.9,0.6-1.3,0.9
			c-0.6,0.3-1.2,0.4-1.8,0.5c-0.2,0-0.4-0.1-0.6-0.2c-0.7-0.6-1.3-1.4-1.6-2.3c-0.1-0.4-0.1-1,0-1.4c0-0.5,0.1-0.9,0.3-1.4
			c0.2-0.5,0.4-1,0.6-1.6c0.1-0.2,0.1-0.3,0.2-0.5c0.1-0.3,0.1-0.5-0.2-0.7c-0.3-0.2-0.5-0.6-0.7-0.9c-0.2-0.4-0.5-0.6-0.8-0.9
			c-0.7-0.7-1.3-1.5-2-2.2c-0.2-0.3-0.5-0.6-0.7-0.8c-0.8-0.7-1.5-1.5-2.1-2.4C31,83.1,31,83,30.9,82.9c-0.3-0.2-0.5-0.5-0.7-0.8
			c-0.7-0.8-1.2-1.7-1.8-2.6c-0.3-0.5-0.7-1-0.8-1.6c0-0.1-0.1-0.1-0.1-0.2c-0.5-0.9-0.9-1.9-1.1-2.9c-0.1-0.6-0.3-1.3-0.3-1.9
			c0-0.5,0-1,0-1.5c0-1.4,0.4-2.8,1-4.1c0.4-0.8,0.9-1.6,1.3-2.4c0.6-1,1.3-1.9,1.9-2.8c0.3-0.5,0.6-1,1-1.5c0.5-0.7,1-1.4,1.4-2.1
			c0.4-0.5,0.7-1.1,1.1-1.6c0.5-0.7,0.9-1.5,1.4-2.2c0.5-0.9,1.1-1.8,1.6-2.7c0.7-1.4,1.4-2.7,2.2-4.1c0.3-0.6,0.6-1.1,1-1.7
			C40.1,46,40.3,45.9,40.5,45.6z"/>
		<path class="st0" d="M78.1,13.1c0.1-0.5,0.4-0.7,0.6-0.9c0.9-1.1,1.8-2.2,2.7-3.4c0.5-0.6,0.8-1.3,1.2-1.9c0.4-0.6,1-1.2,1.5-1.7
			c0.4-0.3,0.6-0.2,0.8,0.2C85,5.7,85,6,84.8,6.2c-0.2,0.3-0.4,0.6-0.6,1c0.3-0.1,0.3-0.2,0.4-0.3c0.2-0.2,0.3-0.4,0.5-0.6
			C85.5,6,85.9,6.2,86,6.6c0,0.2,0,0.4-0.1,0.6c-0.1,0.3-0.3,0.5-0.5,0.8c-0.2,0.3-0.4,0.6-0.5,1c0.2-0.2,0.5-0.4,0.7-0.6
			c0.4-0.3,0.7-0.3,0.9,0.2c0.2,0.4,0.1,0.7-0.1,1c-0.5,0.7-0.9,1.5-1.5,2.1c-0.1,0.1-0.2,0.2-0.2,0.4c-0.5,1-1.1,1.8-1.9,2.5
			c-0.5,0.4-0.9,0.8-1.5,1.1c-0.4,0.2-0.7,0.6-1,0.9C79.5,17,79,17.6,78.3,18c0,0-0.1,0-0.1,0.1c-0.9,0.9-2,1.4-3,2.2
			c-0.7,0.5-1.5,1-2.2,1.5c-0.5,0.3-1,0.8-1.5,1c-0.4,0.2-0.7,0.5-1,0.7c-0.8,0.4-1.5,0.9-2.2,1.3c-0.4,0.2-0.7,0.5-1.2,0.5
			c-0.1,0-0.2,0.1-0.3,0.2c-0.6,0.5-1.3,0.9-2.1,1.2c-0.6,0.3-1.3,0.6-1.9,1c-0.3,0.2-0.7,0.3-1.1,0.5c-0.9,0.4-1.7,0.7-2.5,1.1
			c-0.5,0.2-0.9,0.5-1.5,0.5c-0.5,0.1-0.7,0-0.8-0.4c-0.2-0.4-0.1-0.9,0.3-1.1c0.3-0.2,0.7-0.4,1-0.5c0.5-0.2,0.9-0.5,1.4-0.7
			c0.7-0.2,1.3-0.6,1.9-1c1.2-0.6,2.3-1.3,3.4-1.9c0.4-0.2,0.8-0.4,1.2-0.5c0.2-0.1,0.4-0.2,0.5-0.3c0.3-0.2,0.6-0.4,0.9-0.6
			c0.6-0.4,1.3-0.7,1.8-1c0.3-0.2,0.6-0.5,1-0.6c0,0,0.1,0,0.1-0.1c0.1-0.3,0.4-0.4,0.7-0.5c0.6-0.4,1.2-0.7,1.8-1.1
			c0.5-0.3,1-0.7,1.5-1.1c0.4-0.3,0.8-0.6,1.3-0.9c0.6-0.4,1.3-0.8,1.9-1.2c0.3-0.2,0.6-0.5,0.8-0.7c0.5-0.4,1-0.9,1.5-1.3
			c0.1-0.1,0.3-0.2,0.5-0.3c0.1-0.1,0.3-0.2,0.4-0.3c0,0,0-0.1-0.1-0.1c-0.1,0-0.2,0.1-0.3,0.1c-0.2,0-0.5,0-0.6-0.2
			c-0.1-0.2,0-0.3,0.1-0.5c0.3-0.4,0.6-0.9,0.9-1.4c-0.2,0.2-0.5,0.3-0.7,0.6c-0.3,0.4-0.8,0.6-1.3,0.8
			C78.7,13.1,78.4,13.1,78.1,13.1z M83.4,10.9C83.4,10.9,83.4,10.9,83.4,10.9c0.3-0.1,0.5-0.3,0.6-0.6c0,0-0.1,0-0.1-0.1
			C83.7,10.4,83.6,10.7,83.4,10.9z M82.9,11.7C82.9,11.6,82.8,11.6,82.9,11.7c-0.2,0.1-0.3,0.2-0.4,0.3c0,0,0.1,0,0.1,0.1
			C82.7,11.9,82.8,11.8,82.9,11.7z"/>
		<path class="st0" d="M12.6,43.2c0.1-0.7,0-1.4,0.3-2.1c0.1-0.3,0.1-0.6,0.2-0.9c0.1-0.7,0.4-1.4,0.8-2c0.4-0.8,0.8-1.5,1.2-2.3
			c0,0,0,0,0,0c0.8-1,1.4-2.1,2.4-3c0.8-0.7,1.5-1.5,2.3-2.2c0.1-0.1,0.3-0.2,0.4-0.3c0.3-0.2,0.5-0.4,0.8-0.6
			c0.5-0.4,1-0.8,1.6-1.2c0.4-0.3,0.8-0.5,1.3-0.8c0.2-0.1,0.5-0.2,0.7-0.3c0.3-0.2,0.6-0.4,0.9-0.6c0.2-0.1,0.3-0.2,0.5-0.2
			c0.3-0.2,0.7-0.4,1-0.5c0.8-0.4,1.6-0.7,2.4-1.1c1-0.5,2.1-0.8,3.1-1.2c0.3-0.1,0.7-0.1,1,0c0.4,0,0.6,0.5,0.3,0.8
			c-0.1,0.1-0.2,0.2-0.3,0.3c-0.8,0.6-1.6,0.9-2.5,1.3c-1.3,0.6-2.6,1.3-4,1.9c-0.6,0.3-1.1,0.5-1.7,0.8c-0.2,0.1-0.4,0.2-0.5,0.3
			c-0.4,0.3-0.8,0.5-1.1,0.8c-0.6,0.4-1.2,0.9-1.8,1.2c-1.1,0.6-1.9,1.6-2.8,2.4c-0.6,0.5-1,1.1-1.5,1.7c-0.6,0.7-1.1,1.5-1.6,2.3
			c-0.4,0.6-0.6,1.3-0.9,2c-0.2,0.5-0.4,1-0.6,1.6c0,0.1-0.1,0.1-0.1,0.2c-0.1,0.4-0.1,0.9-0.1,1.3c-0.1,1.5,0.4,2.8,1,4
			c0.2,0.3,0.4,0.6,0.6,0.8c0.2,0.2,0.3,0.5,0.5,0.7c0.1,0.1,0.1,0.2,0.2,0.3c0.2,0.2,0.4,0.4,0.6,0.6c0.4,0.4,0.8,0.7,1.1,1.1
			c0.7,0.7,1.4,1.4,2.1,2.2c0.2,0.3,0.5,0.5,0.8,0.7c0.1,0.1,0.2,0.2,0.2,0.2c0.1,0.2,0.2,0.3,0.4,0.4c0.5,0.2,0.8,1.1,0.6,1.6
			c-0.2,0.5-0.6,0.6-1,0.3c-0.8-0.6-1.6-1.1-2.3-1.7c-0.2-0.2-0.3-0.3-0.5-0.5c-0.9-0.9-1.8-1.8-2.7-2.8c-0.6-0.7-1.3-1.4-1.7-2.2
			c-0.3-0.6-0.7-1.1-0.8-1.7c-0.1-0.3-0.2-0.6-0.4-0.9C12.6,45,12.6,44.1,12.6,43.2z"/>
		<path class="st0" d="M52.3,23.5c-0.2,0-0.3,0-0.4-0.1c-0.3-0.1-0.5-0.2-0.5-0.5c0-0.3,0.1-0.6,0.3-0.7c0.2-0.1,0.4-0.2,0.6-0.2
			c0.9-0.2,1.7-0.5,2.6-0.7c1-0.2,1.9-0.6,2.8-1c0.4-0.2,0.8-0.3,1.2-0.5c0.5-0.2,1-0.5,1.5-0.8c0.1,0,0.1-0.1,0.2-0.1
			c0.6-0.1,1.1-0.6,1.7-0.9c0.7-0.3,1.4-0.7,2-1.1c0.9-0.5,1.7-1,2.6-1.6c0.6-0.4,1.3-0.7,1.9-1.1c0.4-0.2,0.8-0.4,1.1-0.8
			c0.1-0.2,0.4-0.2,0.6-0.3c0.8-0.5,1.5-1.2,2.2-1.8c0.5-0.4,0.9-0.7,1.3-1.2c0.3-0.3,0.7-0.7,1-1c0.7-0.5,1.1-1.2,1.7-1.7
			c0.3-0.3,0.7-0.6,1-1c0.6-0.6,1.1-1.3,1.6-2c0.1-0.1,0.1-0.1,0.2-0.2c0.3-0.3,0.6-0.2,0.8,0.2c0.2,0.3,0.2,0.6,0,1
			c-0.4,1.1-1.1,2-1.9,2.8c-0.5,0.5-1,1.1-1.5,1.6C77.1,9.9,77,10,76.9,10c-0.4,0.2-0.7,0.6-1,0.9c-0.3,0.4-0.7,0.7-1,1
			c-0.5,0.5-1,1-1.5,1.4c-0.5,0.4-0.9,0.8-1.5,1.1c-0.4,0.2-0.7,0.6-1.1,0.9c-0.2,0.1-0.3,0.2-0.5,0.3c-0.2,0.1-0.3,0.3-0.5,0.3
			c-0.6,0.3-1.1,0.7-1.6,1c-0.5,0.3-1,0.6-1.6,1c-1,0.6-1.9,1.2-3,1.6c-0.1,0-0.1,0.1-0.2,0.1c-0.4,0.4-1,0.5-1.4,0.8
			c-0.3,0.1-0.6,0.2-0.8,0.5c-0.1,0.1-0.2,0.1-0.2,0.1c-0.2,0.1-0.4,0.2-0.7,0.3c-0.2,0.1-0.5,0.2-0.7,0.3c-0.3,0.1-0.7,0.2-1,0.4
			c-0.6,0.3-1.3,0.5-1.9,0.7c-0.9,0.3-1.7,0.5-2.6,0.6C53.5,23.4,52.9,23.4,52.3,23.5z"/>
		<path class="st0" d="M21.6,42.3c0.2-0.9,0.2-1.8,0.5-2.7c0.2-0.8,0.5-1.7,1-2.4c0.9-1.4,2-2.7,3.3-3.7c0.4-0.3,0.9-0.6,1.3-0.9
			c0.6-0.5,1.4-0.8,2.1-1.1c0.7-0.3,1.4-0.6,2.3-0.6c0.6,0,0.9,0.6,0.7,1c-0.1,0.2-0.3,0.4-0.6,0.5c-0.5,0.2-1.1,0.4-1.6,0.6
			c-0.5,0.2-0.9,0.4-1.3,0.7c-0.5,0.3-1,0.6-1.5,0.9c-0.5,0.4-1,0.8-1.4,1.2c-0.5,0.4-0.9,0.9-1.3,1.3c-0.5,0.6-0.9,1.3-1.2,2
			c-0.4,1.1-0.7,2.2-0.6,3.3c0,0.7,0.2,1.3,0.3,1.9c0.1,0.4,0.3,0.8,0.7,1.2c0.4,0.4,0.6,0.8,1,1.2c0.1,0.1,0.2,0.2,0.3,0.3
			c0.4,0.3,0.9,0.6,1.2,1.1c0.1,0.2,0.2,0.4,0.3,0.6c0.1,0.3,0.1,0.5-0.1,0.8c-0.3,0.6-0.6,0.6-1.1,0.2c-0.5-0.4-0.9-0.8-1.3-1.2
			c-0.3-0.2-0.5-0.4-0.8-0.6c-0.2-0.1-0.3-0.3-0.4-0.4c-0.3-0.4-0.5-0.8-0.8-1.1c-0.1-0.1-0.1-0.2-0.1-0.4c-0.1-0.2-0.1-0.4-0.2-0.6
			c-0.3-0.5-0.4-1.1-0.5-1.7C21.8,43.3,21.7,42.8,21.6,42.3z"/>
		<path class="st0" d="M76.1,11.9c0.9-1,1.7-2.1,2.6-3.1c0.7-0.8,1.4-1.6,2.2-2.4c0.2-0.2,0.3-0.4,0.5-0.6c0.3-0.4,0.6-0.7,0.9-1
			c0.2-0.2,0.3-0.4,0.5-0.5s0.4-0.3,0.6-0.4c0.2-0.1,0.4-0.2,0.5,0c0.1,0.2,0.1,0.4,0.1,0.6c0,0.1,0,0.1-0.1,0.2
			c-0.5,0.7-0.9,1.5-1.4,2.2c-0.6,0.8-1.2,1.6-1.8,2.3c-0.7,0.8-1.5,1.5-2.4,2.2c-0.4,0.3-0.8,0.6-1.3,0.9
			C76.7,12.3,76.5,12.3,76.1,11.9z"/>
		<path class="st0" d="M26.4,52.2c0,0.7-0.5,1.1-1.1,0.9c-0.4-0.2-0.9-0.5-1.3-0.8c-0.5-0.4-1-0.7-1.3-1.3c0-0.1-0.1-0.1-0.2-0.2
			c-0.6-0.3-1-0.8-1.4-1.3c-0.4-0.4-0.6-0.9-0.5-1.5c0.1-0.3,0.2-0.5,0.5-0.6c0.3-0.1,0.5,0,0.7,0.2c0.5,0.5,0.9,1,1.3,1.6
			c0.1,0.2,0.3,0.3,0.5,0.4c0.2,0.1,0.4,0.2,0.5,0.3c0.6,0.5,1.2,1,1.8,1.5C26.2,51.6,26.3,51.9,26.4,52.2z"/>
		<path class="st0" d="M17.6,47.6c0,0,0-0.2,0.1-0.3c0.1-0.2,0.2-0.4,0.4-0.4c0.2,0,0.4,0.1,0.5,0.3c0.1,0.1,0.2,0.2,0.3,0.3
			c0.5,0.4,0.9,0.7,1.3,1.2c0.4,0.5,0.9,1,1.3,1.5c0.5,0.6,1,1.2,1.5,1.8c0.2,0.3,0.4,0.5,0.6,0.8c0.1,0.2,0.1,0.5,0,0.7
			c-0.2,0.4-0.5,0.5-0.9,0.2c-0.4-0.3-0.8-0.7-1.1-1c-0.6-0.6-1.2-1.3-1.7-1.9c-0.6-0.7-1.2-1.3-1.7-2.1c-0.1-0.1-0.1-0.2-0.2-0.3
			C17.7,48.2,17.6,47.9,17.6,47.6z"/>
		<path class="st0" d="M18.8,83c-0.1,0.1-0.2,0.2-0.3,0.3c-0.1,0.3-0.4,0.5-0.6,0.7c-0.1,0.1-0.2,0.2-0.2,0.3
			c-0.1,0.2-0.2,0.4-0.4,0.6c-0.2,0.3-0.5,0.3-0.8,0c-0.5-0.5-0.4-1.3,0.1-1.7c0.1-0.1,0.2-0.2,0.3-0.3c0.2-0.3,0.4-0.6,0.7-0.7
			c0,0,0.1-0.1,0.1-0.1c0.3-0.5,0.7-0.9,1.1-1.4c0.2-0.2,0.4-0.4,0.6-0.6c0,0,0.1-0.1,0.2-0.1c0.5,0,1,0.6,0.9,1.1c0,0,0,0.1,0,0.1
			c-0.4,0.4-0.7,0.9-1.1,1.3C19.1,82.7,19,82.9,18.8,83C18.9,83.1,18.8,83.1,18.8,83z"/>
		<path class="st0" d="M14.1,75.8c0-0.1-0.1-0.1-0.1-0.2c-0.1-0.3-0.1-0.7,0.3-0.9c0.3-0.1,0.6-0.3,1-0.3c0.1,0,0.2,0,0.2-0.1
			c0.7-0.3,1.3-0.7,2-1c0.2-0.1,0.3-0.1,0.5,0c0.4,0.1,0.7,0.4,0.7,0.8c0,0.2,0,0.4-0.3,0.6c-0.5,0.3-1.1,0.6-1.6,0.8
			c-0.3,0.2-0.7,0.3-1,0.4c-0.3,0.2-0.6,0.2-1,0.2C14.4,76.3,14.2,76.1,14.1,75.8z"/>
		<path class="st0" d="M21.7,90.9c-0.3-0.4-0.3-0.8-0.1-1.2c0.2-0.3,0.2-0.6,0.3-0.8c0.1-0.3,0.2-0.6,0.3-0.8c0.1-0.3,0.3-0.7,0.4-1
			c0.1-0.2,0.2-0.5,0.5-0.4c0.3,0,0.6,0.1,0.8,0.4c0.2,0.3,0.2,0.6,0.1,0.9c-0.2,0.5-0.4,1.1-0.6,1.6c0,0.1-0.1,0.2-0.2,0.3
			c-0.1,0.2-0.2,0.5-0.2,0.8c-0.1,0.5-0.5,0.7-0.9,0.5C21.9,91.2,21.8,91,21.7,90.9z"/>
		<path class="st0" d="M19.5,67c0.1,0.2,0.2,0.5,0.2,0.7c0,0.2-0.2,0.3-0.4,0.4c-0.3,0-0.6,0.1-0.8,0.1c-0.6,0-1.1,0.2-1.7,0.1
			c-0.1,0-0.2,0-0.2-0.1c-0.2-0.1-0.4-0.1-0.6-0.2c-0.6-0.2-1-0.6-1-1.1c0-0.4,0.2-0.5,0.6-0.4c0.3,0.1,0.5,0.2,0.8,0.2
			c0.3-0.1,0.7,0.1,1,0.1c0,0,0.1,0,0.1,0c0.2-0.1,0.5-0.2,0.7-0.2c0.4,0,0.8-0.2,1.1,0.2C19.3,66.9,19.4,67,19.5,67z"/>
		<path class="st0" d="M73.6,39.3c0.1-0.1,0.2-0.2,0.2-0.4c0.1-0.3,0.3-0.5,0.5-0.8c0.1-0.1,0.1-0.2,0.2-0.3
			c0.1-0.2,0.2-0.4,0.3-0.6c0.2-0.3,0.5-0.3,0.8-0.1c0.5,0.4,0.6,1.2,0.1,1.7c-0.1,0.1-0.2,0.2-0.2,0.3c-0.2,0.3-0.3,0.6-0.6,0.8
			c0,0-0.1,0.1-0.1,0.1c-0.2,0.5-0.6,1-0.9,1.5c-0.2,0.3-0.4,0.5-0.6,0.7c0,0-0.1,0.1-0.2,0.1c-0.5,0.1-1.1-0.5-1-1c0,0,0-0.1,0-0.1
			c0.3-0.5,0.5-1,0.9-1.4C73.3,39.7,73.4,39.5,73.6,39.3C73.5,39.3,73.5,39.3,73.6,39.3z"/>
		<path class="st0" d="M79.2,45.8c0.1,0.1,0.1,0.1,0.2,0.2c0.2,0.3,0.2,0.7-0.2,0.9c-0.3,0.2-0.6,0.4-0.9,0.4
			c-0.1,0-0.2,0.1-0.2,0.1c-0.6,0.4-1.2,0.8-1.9,1.3c-0.1,0.1-0.3,0.1-0.5,0.1c-0.4-0.1-0.7-0.3-0.8-0.7c0-0.2,0-0.4,0.2-0.6
			c0.5-0.3,1-0.7,1.5-1c0.3-0.2,0.7-0.4,1-0.6c0.3-0.2,0.6-0.3,0.9-0.4C78.8,45.5,79,45.6,79.2,45.8z"/>
		<path class="st0" d="M69.7,31.9c0.3,0.4,0.4,0.8,0.2,1.2c-0.1,0.3-0.2,0.6-0.2,0.9c0,0.3-0.1,0.6-0.2,0.9c-0.1,0.4-0.2,0.7-0.3,1
			c-0.1,0.2-0.1,0.5-0.4,0.5c-0.3,0-0.6,0-0.8-0.3c-0.2-0.3-0.3-0.6-0.2-0.9c0.2-0.6,0.3-1.1,0.4-1.7c0-0.1,0.1-0.2,0.1-0.3
			c0.1-0.2,0.1-0.5,0.1-0.8c0-0.5,0.4-0.8,0.8-0.6C69.4,31.7,69.6,31.8,69.7,31.9z"/>
		<path class="st0" d="M75,55.3c-0.2-0.2-0.3-0.5-0.2-0.7c0-0.2,0.1-0.4,0.4-0.4c0.3-0.1,0.5-0.2,0.8-0.2c0.6-0.1,1.1-0.3,1.7-0.3
			c0.1,0,0.2,0,0.2,0c0.2,0,0.4,0.1,0.6,0.1c0.6,0.1,1.1,0.5,1.1,1c0,0.4-0.2,0.6-0.5,0.4c-0.3-0.1-0.5-0.1-0.8,0
			c-0.3,0.1-0.7,0-1,0.1c0,0-0.1,0-0.1,0c-0.2,0.1-0.4,0.2-0.7,0.3c-0.4,0.1-0.8,0.3-1.1,0C75.2,55.4,75.1,55.3,75,55.3z"/>
	</g>
	<g>
		
			<linearGradient id="SVGID_1_" gradientUnits="userSpaceOnUse" x1="23.1246" y1="58.4671" x2="64.8741" y2="58.4671" gradientTransform="matrix(1 0 0 -1 0 102)">
			<stop  offset="0" style="stop-color:#FF6600"/>
			<stop  offset="1" style="stop-color:#F4AC2B"/>
		</linearGradient>
		<path class="st1" d="M50.1,20.9c0.4-0.2,0.5-0.1,0.7,0.2c0.2,0.4,0.2,0.9,0.2,1.3c0.1,1,0.1,2,0.2,3c0,0.6,0.2,1.3,0.1,1.9
			c0,1,0.2,1.9,0.3,2.9c0,0.4,0.2,0.8,0.2,1.2c0.2,1.5,0.8,3,1.2,4.5c0.2,0.8,0.7,1.6,1.1,2.3c0.3,0.6,0.7,1.2,1,1.7
			c0.4,0.7,0.9,1.4,1.5,2.1c0.3,0.4,0.6,0.8,0.9,1.3c0.1,0.1,0.2,0.3,0.3,0.4c0.3,0.4,0.6,0.8,1,1.2c0.4,0.4,0.8,0.7,1.1,1
			c0.1,0.1,0.3,0.2,0.4,0.4c0.1,0.1,0.2,0.2,0.4,0.3c0.1,0.1,0.3,0.2,0.4,0.3c0.2,0.1,0.3,0.2,0.5,0.4c0.1,0,0.2,0.1,0.2,0.1
			c0.3,0.4,0.8,0.7,1.3,0.9c0.3,0.2,0.5,0.4,0.8,0.6c0.2,0.2,0.5,0.4,0.7,0.6c0.3,0.3,0.3,0.8,0.1,1.1c-0.3,0.5-0.6,1-1.2,1.1
			c-0.1,0-0.1,0.1-0.2,0.1c-0.7,0.7-1.5,1.1-2.4,1.5c-0.7,0.4-1.5,0.7-2.2,1.1c-0.3,0.1-0.5,0.3-0.8,0.5c-0.4,0.2-0.8,0.4-1.1,0.6
			c-1.2,0.6-2.4,1.2-3.5,1.7c-0.5,0.2-0.9,0.5-1.4,0.7c-0.4,0.2-0.8,0.3-1.2,0.4c0,0-0.1,0-0.1,0.1c-0.2,0.4-0.7,0.4-1,0.6
			c-0.7,0.3-1.5,0.5-2.2,0.8c-0.3,0.1-0.6,0.3-0.8,0.4c-0.7,0.3-1.3,0.6-2,0.8c-0.5,0.2-1.1,0.3-1.6,0.5c-0.4,0.2-0.9,0.3-1.3,0.5
			c-0.2,0.1-0.3,0.2-0.5,0.2c-0.5,0-0.8,0.2-1.2,0.4c-0.5,0.2-0.9,0.5-1.4,0.5c-0.2,0-0.4,0.2-0.6,0.3c-0.1,0-0.2,0.1-0.3,0.1
			c-0.6,0.2-1.2,0.3-1.8,0.5c-0.2,0.1-0.5,0.1-0.7,0.3c0,0.1-0.1,0.1-0.2,0.1c-1.1,0.3-2.1,0.5-3.2,0.8c-0.1,0-0.2,0.1-0.2,0.1
			c-0.8,0.3-1.6,0.5-2.5,0.6c-0.4,0.1-0.8,0.3-1.2,0.4c-0.7,0.2-1.5,0.3-2.2,0.5c-0.2,0-0.4,0.1-0.6,0.2c-0.3,0.1-0.6,0.1-0.9,0.2
			c-0.3,0.1-0.6-0.1-0.7-0.4c-0.3-0.6-0.5-1.3,0.3-1.9c0.4-0.3,0.6-0.6,0.8-1c0.6-0.8,1.1-1.7,1.6-2.5c0,0,0.1-0.1,0.1-0.1
			c0.7-1.4,1.3-2.9,2-4.3c0.6-1.3,1-2.7,1.6-4c0.3-0.8,0.6-1.6,0.9-2.4c0.2-0.8,0.4-1.5,0.6-2.3c0.1-0.3,0.2-0.6,0.3-1
			c0.2-0.8,0.5-1.5,0.6-2.3c0.3-1,0.5-2,0.7-3.1c0.1-0.6,0.2-1.2,0.3-1.8c0.1-0.8,0.2-1.6,0.2-2.4c0.2-1.7,0.3-3.5,0.4-5.3
			c0.1-1.5-0.1-2.9-0.4-4.3c-0.2-0.9-0.3-1.7-0.5-2.6c-0.1-0.6-0.2-1.2-0.4-1.7c-0.1-0.4,0.1-0.8,0.3-1.2c0.1-0.2,0.4-0.3,0.7-0.4
			c0.6-0.2,1.2-0.3,1.8-0.5c0.1,0,0.2-0.1,0.3-0.1c0.4,0.1,0.7-0.1,1-0.2c0.3-0.1,0.7-0.2,1-0.2c0.3-0.1,0.4,0,0.6,0.2
			c0.1,0.1,0.2,0.2,0.2,0.3c0,0.5,0.4,0.7,0.6,1c0.2,0.3,0.4,0.5,0.6,0.8c0.6,1.1,1.3,2.1,2.1,3.1c0.1,0.1,0.3,0.2,0.5,0.3
			c0.5,0.4,1.1,0.6,1.8,0.7c0.2,0,0.4,0,0.5-0.1c0.9-0.5,1.4-1.3,1.6-2.3c0.1-0.7,0.2-1.5,0.3-2.2c0.1-0.5,0-0.9-0.3-1.3
			c-0.3-0.4-0.3-0.8-0.2-1.2c0.1-0.4,0.3-0.7,0.8-0.8c0.4-0.1,0.8,0,1.3,0.1c0.4,0.1,0.8,0.1,1.2,0.1c0.3,0,0.6,0.1,0.8,0.1
			c0.1,0,0.2,0.1,0.2,0.2C49.9,20.6,50,20.8,50.1,20.9z"/>
	</g>
	<path class="st0" d="M36,12.3c-0.1,0-0.2,0.1-0.3,0.1c-1.1,0.4-2.1,0.3-3.2,0c-0.9-0.2-1.6-0.7-2.3-1.2c-0.5-0.4-0.7-0.9-0.9-1.4
		c-0.3-1-0.4-1.9-0.2-3c0.2-1,0.6-1.9,1.1-2.7c0.2-0.3,0.4-0.7,0.7-1c0.4-0.3,0.8-0.6,1.2-0.8C32.7,2,33.3,2,33.9,2
		c0.4,0.1,0.9,0.2,1.3,0.4c0.5,0.2,1,0.5,1.5,0.8c0.1,0.1,0.2,0.2,0.4,0.3c0.4,0.4,0.8,0.8,1.1,1.2C38.6,5.3,39,6,39.1,6.9
		c0.3-0.1,0.6-0.1,0.9-0.2c0.1,0,0.2-0.1,0.2-0.1c0.5,0.1,1-0.1,1.4,0.2C41.8,7,42,6.9,42.2,7c0.4,0.2,0.9,0.3,1.3,0.6
		c0.4,0.2,0.7,0.5,1,0.9c0.3,0.3,0.6,0.7,1,1.1c0.1,0.1,0.2,0.2,0.2,0.3c0.4,0.8,0.9,1.4,1.1,2.3c0.4,1.5,0.5,3,0.3,4.4
		c-0.1,0.9-0.3,1.8-0.6,2.6c-0.3,0.7-0.6,1.4-1.3,1.9c-0.1,0.1-0.1,0.1-0.2,0.2c-0.2,0.3-0.5,0.5-0.8,0.6c-0.1,0-0.2,0.1-0.3,0.1
		c-0.2,0.3-0.5,0.3-0.8,0.3c-0.4,0-0.7,0.1-1.1,0.2c-0.4,0.1-0.8,0-1.1-0.3c-0.2-0.2-0.5-0.2-0.8-0.1c-0.3,0-0.5-0.1-0.8-0.2
		c-1.6-0.9-2.5-2.4-3-4.2c-0.1-0.5-0.2-1-0.3-1.5c-0.1-0.3-0.2-0.5-0.2-0.8c0-0.2-0.1-0.5-0.1-0.7c0-0.4,0.1-0.8,0.1-1.2
		C35.9,13.2,36,12.8,36,12.3z M37.4,15.7c0.1,1.1,0.6,2.1,1.1,3.1c0.2,0.4,0.5,0.8,0.9,0.9c0.4,0.2,0.7,0.5,1.1,0.7
		c0.1,0.1,0.2,0.1,0.4,0.1c0.3,0,0.5-0.1,0.8-0.1c0.6-0.1,1.2-0.1,1.7-0.2c0.3-0.1,0.7-0.4,0.9-0.7c0.9-1.2,1.4-2.5,1.4-4.1
		c0-0.2,0-0.3,0-0.5c0-0.8,0-1.5-0.3-2.2c-0.2-0.6-0.4-1.2-0.9-1.6c-0.1-0.1-0.1-0.2-0.2-0.3c-0.4-0.5-0.8-0.9-1.3-1.1
		c-0.1,0.1-0.1,0.1-0.1,0.1c-0.3,0.9-0.8,1.8-1.4,2.5c-0.1,0.1-0.1,0.1-0.1,0.2c-0.5,0.9-1.2,1.6-2,2.1C38.7,15,38.1,15.3,37.4,15.7
		z M30.7,8.2c0,0.4,0.1,0.8,0.3,1.2c0.2,0.3,0.5,0.5,0.8,0.6c0.7,0.4,1.5,0.5,2.3,0.5c0.3,0,0.6,0,0.8-0.1c0.7,0,1.3-0.4,1.9-0.6
		c0.3-0.5,0.7-0.9,0.9-1.5c0.2-0.6,0-1.3-0.3-1.9c-0.2-0.3-0.4-0.7-0.7-0.9c-0.6-0.6-1.4-0.9-2.2-1.2c-0.3-0.1-0.7-0.3-1.1-0.2
		c-0.5,0.1-0.9,0.4-1.3,0.7C31.1,5.7,30.7,6.9,30.7,8.2z M38.9,9.5c-0.1,0.1-0.2,0.2-0.2,0.2c-0.4,1-0.7,2-1.1,3
		c-0.1,0.2-0.2,0.4,0,0.6c0.1-0.1,0.2-0.1,0.3-0.2c0.2-0.2,0.5-0.4,0.7-0.6c0.8-0.7,1.7-1.3,2.2-2.2c0.1-0.1,0.2-0.2,0.2-0.3
		c0.2-0.3,0.4-0.7,0.7-1.1c-0.3,0-0.5,0-0.7-0.1c-0.4-0.2-0.8,0-1.1,0.2C39.7,9.5,39.3,9.6,38.9,9.5z"/>
	<path class="st0" d="M30.7,8.2c0.1-1.3,0.4-2.4,1.4-3.3c0.4-0.3,0.8-0.7,1.3-0.7c0.4-0.1,0.8,0.1,1.1,0.2c0.8,0.3,1.5,0.6,2.2,1.2
		c0.3,0.3,0.5,0.6,0.7,0.9c0.3,0.6,0.4,1.3,0.3,1.9c-0.2,0.5-0.6,1-0.9,1.5c-0.6,0.3-1.2,0.6-1.9,0.6c-0.3,0-0.6,0-0.8,0.1
		c-0.8,0.1-1.6-0.1-2.3-0.5c-0.3-0.2-0.6-0.3-0.8-0.6C30.7,9,30.7,8.6,30.7,8.2z"/>
	<path class="st0" d="M38.9,9.5c0.5,0.1,0.8-0.1,1.2-0.4c0.3-0.3,0.6-0.5,1.1-0.2C41.3,9,41.5,8.9,41.8,9c-0.2,0.4-0.5,0.7-0.7,1.1
		c-0.1,0.1-0.2,0.2-0.2,0.3c-0.5,1-1.4,1.5-2.2,2.2c-0.2,0.2-0.5,0.4-0.7,0.6c-0.1,0.1-0.2,0.1-0.3,0.2c-0.2-0.2-0.1-0.5,0-0.6
		c0.3-1,0.7-2,1.1-3C38.7,9.7,38.8,9.6,38.9,9.5z"/>
	<path class="st0" d="M42.3,19.5c-0.3,0-0.5,0-0.7-0.2c-0.1-0.1-0.3-0.1-0.4-0.2c-0.9-0.2-1.3-0.8-1.6-1.6c-0.1-0.3-0.2-0.6-0.2-0.9
		c0-0.1,0-0.3,0-0.4c0.1-0.1,0.2-0.3,0.3-0.3c0.2-0.1,0.3,0.1,0.4,0.2c0.2,0.3,0.4,0.6,0.6,0.9c0.2,0.2,0.4,0.3,0.6,0.4
		c0.1,0.1,0.2,0.1,0.3,0.1c0.5,0,0.9,0,1.4-0.1c0.2,0,0.5-0.2,0.6,0.1c0.2,0.3,0.4,0.5,0.4,0.9c0,0.5-0.3,0.8-0.8,0.9
		C42.9,19.4,42.6,19.4,42.3,19.5z"/>
	<path class="st0" d="M44.4,12.3c0.6,0.4,0.7,0.9,0.8,1.4c0.1,0.5,0.1,1,0.2,1.5c0,0.7-0.5,1.4-1.3,1.5c-0.5,0.1-0.8-0.2-0.9-0.7
		c-0.1-0.7,0.3-1.1,1-1.2c0.1,0,0.1,0,0.2,0c-0.1-0.4-0.1-0.9-0.1-1.3C44.3,13.1,44.2,12.7,44.4,12.3z"/>
	<path class="st0" d="M41,13.6c0.1,0.1,0.1,0.1,0.1,0.1c0.4,0.5,0.4,0.5,0.9,0.1c0.2-0.1,0.4-0.3,0.6-0.4c0.3-0.1,0.4,0,0.6,0.2
		c0.1,0.2,0.1,0.5,0,0.8c-0.1,0.3-0.4,0.6-0.7,0.8c-0.5,0.3-0.9,0.1-1.2-0.2c-0.5-0.3-0.7-0.8-0.6-1.2c0-0.1,0.1-0.1,0.1-0.2
		C40.9,13.6,40.9,13.6,41,13.6z"/>
</g>
</svg>
