<?xml version="1.0" encoding="utf-8"?>
<!-- Generator: Adobe Illustrator 26.0.0, SVG Export Plug-In . SVG Version: 6.00 Build 0)  -->
<svg version="1.1" id="Layer_1" xmlns="http://www.w3.org/2000/svg" xmlns:xlink="http://www.w3.org/1999/xlink" x="10px" y="10px"
	 viewBox="0 0 300 300" style="enable-background:new 0 0 300 300;" xml:space="preserve">
<g>
	<path d="M51.7,125.5v15.8h16.2c9.2,0,16.7-7.5,16.7-16.7v-16.2H68.8C59.3,108.3,51.7,116,51.7,125.5z"/>
	<path d="M67.5,143.7H51.7v16.2c0,9.2,7.5,16.7,16.7,16.7h16.2v-15.8C84.6,151.3,76.9,143.7,67.5,143.7z"/>
	<path d="M120.6,133.5c-1.7-2.6-4.2-4.3-7.1-5.2c-2.6-0.8-5.3-1-8-0.6c-2.5,0.4-4.8,1.3-6.8,3c-3.4,2.7-5,6.3-5.6,10.5
		c-0.1,0.5-0.1,1.1-0.2,1.6c0,0.6,0,1.2,0,1.8c0,0.1,0,0.2,0,0.3c0.1,1.2,0.2,2.3,0.5,3.5c1,4.1,3.3,7.3,7,9.3
		c2.2,1.2,4.6,1.8,7.1,1.9c2.4,0.1,4.8-0.2,7.1-1c3.7-1.4,6.4-4.1,8.3-7.5c0,0,0-0.1,0-0.2c-1.5-0.8-3.1-1.6-4.6-2.4
		c-0.1,0.1-0.1,0.2-0.2,0.3c-1.1,2.1-2.6,3.8-4.8,5c-1.9,1-4,1.3-6.1,1c-2.6-0.3-4.8-1.5-6.4-3.5c-1.3-1.6-1.9-3.4-2.2-5.4
		c-0.1-0.4-0.1-0.9-0.1-1.3c8.2,0,16.4,0,24.7,0c0-0.1,0-0.2,0-0.3c0-1.9-0.2-3.8-0.6-5.7C122.2,136.7,121.6,135,120.6,133.5z
		 M99,140c0.7-3.9,4.1-7.8,9.2-7.8c5.3,0,8.5,3.9,9.2,7.8C111.3,140,105.2,140,99,140z"/>
	<path d="M254.2,128.2c-1.8,0-3.7,0-5.5,0c-0.3,0-0.4,0.1-0.5,0.3c-3.3,7-6.6,14.1-10,21.1c0,0.1-0.1,0.2-0.1,0.3
		c-0.1-0.1-0.1-0.2-0.2-0.3c-3.6-7-7.3-14.1-10.9-21.1c-0.1-0.2-0.2-0.3-0.4-0.3c-1.9,0-3.8,0-5.7,0c-0.1,0-0.2,0-0.3,0
		c0.1,0.1,0.1,0.2,0.2,0.3c4.8,9,9.5,18,14.3,27c0.1,0.2,0.1,0.4,0,0.5c-3.3,6.4-6.5,12.7-9.8,19.1c-0.1,0.1-0.1,0.2-0.1,0.4
		c2,0,4.1,0,6.1,0c0-0.1,0.1-0.2,0.1-0.3c7.7-15.6,15.4-31.2,23-46.8c0-0.1,0.1-0.2,0.1-0.3C254.4,128.2,254.3,128.2,254.2,128.2z"
		/>
	<path d="M180.1,129.6c-4.5-2.4-9.2-2.8-14.1-1.4c-4.1,1.2-7.4,3.6-9.5,7.4c-1.8,3.3-2.4,6.8-1.8,10.5c0.6,4.2,2.7,7.7,6.1,10.2
		c3.1,2.3,6.7,3.2,10.3,3.3c2.1,0,4-0.3,5.8-0.8c4.1-1.3,7.3-3.8,9.4-7.6c1.8-3.3,2.2-6.9,1.5-10.6
		C187.1,135.7,184.4,132,180.1,129.6z M181.7,148.1c-1.4,3.5-4,5.5-7.6,6.4c-0.9,0.2-1.8,0.3-2.3,0.3c-3.5-0.1-6.2-1-8.4-3.2
		c-1.6-1.5-2.5-3.4-2.8-5.6c-0.4-2.3-0.3-4.7,0.5-6.9c1.4-3.7,4.1-5.8,7.9-6.6c2.5-0.5,5-0.3,7.3,0.7c3.3,1.5,5.2,4,6,7.5
		C182.7,143.3,182.6,145.8,181.7,148.1z"/>
	<path d="M218.1,135.4c-0.5-2.6-1.8-4.7-4.1-6.2c-2.6-1.6-5.4-2-8.3-1.6c-2.8,0.4-5.2,1.7-7.1,3.9c0,0-0.1,0.1-0.2,0.1
		c0-1.2,0-2.3,0-3.4c-0.1,0-0.2,0-0.3,0c-1.7,0-3.3,0-5,0c-0.2,0-0.3,0.1-0.3,0.3c0,10,0,19.9,0,29.9c0,0.2,0.1,0.3,0.3,0.3
		c1.7,0,3.3,0,5,0c0.1,0,0.2,0,0.3,0c0-0.1,0-0.2,0-0.3c0-1.2,0-2.5,0-3.7c0-4.4,0-8.7,0-13.1c0-1.5,0.2-3,0.8-4.4
		c0.7-2,2-3.5,4-4.3c1.4-0.5,2.8-0.6,4.3-0.4c2.4,0.3,4.2,1.8,4.9,4.1c0.3,1.1,0.4,2.3,0.4,3.4c0,6.2,0,12.3,0,18.5
		c0,0.1,0,0.2,0,0.4c0.1,0,0.2,0,0.3,0c1.6,0,3.3,0,4.9,0c0.4,0,0.4,0,0.4-0.4c0-6.3,0-12.6,0-19
		C218.4,138.1,218.4,136.7,218.1,135.4z"/>
	<path d="M154.2,128.2c-1.9,0-3.7,0-5.6,0c-0.2,0-0.3,0.1-0.4,0.3c-2.6,5.6-5.1,11.1-7.7,16.7c-0.5,1.1-1.1,2.3-1.6,3.5
		c-0.1-0.1-0.1-0.2-0.1-0.3c-3.1-6.6-6.1-13.3-9.2-19.9c-0.1-0.2-0.2-0.3-0.4-0.3c-1.9,0-3.7,0-5.6,0c-0.1,0-0.2,0-0.4,0
		c5.2,10.9,10.4,21.7,15.6,32.5c0,0,0.1,0,0.1,0c5.2-10.8,10.4-21.6,15.6-32.5C154.4,128.2,154.3,128.2,154.2,128.2z"/>
</g>
</svg>
