<svg width="112" height="32" viewBox="0 0 112 32" fill="none" xmlns="http://www.w3.org/2000/svg">
<path d="M29.4371 10.8948H40.7678V13.0223H36.3065V25.0156H33.8611V13.0223H29.4185L29.4371 10.8948ZM40.2825 14.7921H42.3731V16.7691H42.4105C42.4851 16.4866 42.6158 16.223 42.8025 15.9595C42.9891 15.6959 43.2131 15.4511 43.4931 15.244C43.7545 15.0181 44.0531 14.8486 44.3891 14.7168C44.7065 14.585 45.0425 14.5097 45.3785 14.5097C45.6398 14.5097 45.8265 14.5285 45.9198 14.5285C46.0131 14.5474 46.1251 14.5662 46.2185 14.5662V16.7314C46.0691 16.6937 45.9011 16.6749 45.7331 16.6561C45.5651 16.6373 45.4158 16.6184 45.2478 16.6184C44.8745 16.6184 44.5198 16.6937 44.1838 16.8444C43.8478 16.995 43.5678 17.2209 43.3065 17.5033C43.0638 17.8046 42.8585 18.1623 42.7091 18.5954C42.5598 19.0284 42.4851 19.5367 42.4851 20.1016V24.9592H40.2451L40.2825 14.7921ZM56.4851 25.0156H54.2825V23.5847H54.2451C53.9651 24.1119 53.5545 24.5073 53.0131 24.8274C52.4718 25.1474 51.9118 25.2981 51.3518 25.2981C50.0265 25.2981 49.0558 24.978 48.4585 24.3002C47.8611 23.6412 47.5625 22.6245 47.5625 21.2877V14.7921H49.8025V21.0618C49.8025 21.9655 49.9705 22.6057 50.3251 22.9634C50.6611 23.34 51.1465 23.5282 51.7625 23.5282C52.2291 23.5282 52.6211 23.4529 52.9385 23.3023C53.2558 23.1517 53.5171 22.9634 53.7038 22.7186C53.9091 22.4739 54.0398 22.1726 54.1331 21.8337C54.2265 21.4948 54.2638 21.1183 54.2638 20.7229V14.7921H56.5038V25.0156H56.4851ZM60.2931 21.7396C60.3678 22.3986 60.6105 22.8504 61.0398 23.1329C61.4691 23.3965 61.9918 23.5282 62.5891 23.5282C62.7945 23.5282 63.0371 23.5094 63.2985 23.4718C63.5598 23.4341 63.8211 23.3776 64.0451 23.2835C64.2878 23.1893 64.4745 23.0575 64.6238 22.8693C64.7731 22.681 64.8478 22.4551 64.8291 22.1726C64.8105 21.8902 64.7171 21.6455 64.5118 21.4572C64.3065 21.2689 64.0638 21.1371 63.7651 21.0053C63.4665 20.8923 63.1118 20.7982 62.7198 20.7229C62.3278 20.6476 61.9358 20.5534 61.5251 20.4593C61.1145 20.3652 60.7038 20.2522 60.3118 20.1204C59.9198 19.9886 59.5838 19.8192 59.2665 19.5744C58.9678 19.3485 58.7065 19.0661 58.5385 18.7083C58.3518 18.3506 58.2585 17.9364 58.2585 17.4092C58.2585 16.8444 58.3891 16.3925 58.6691 16.0159C58.9305 15.6394 59.2851 15.3381 59.6958 15.1122C60.1065 14.8863 60.5731 14.7168 61.0771 14.6227C61.5811 14.5285 62.0665 14.4909 62.5145 14.4909C63.0371 14.4909 63.5411 14.5474 64.0078 14.6603C64.4745 14.7733 64.9225 14.9428 65.2958 15.2063C65.6878 15.4511 66.0051 15.79 66.2478 16.1854C66.5091 16.5808 66.6585 17.0703 66.7331 17.6351H64.3998C64.2878 17.0891 64.0451 16.7314 63.6718 16.5431C63.2798 16.3548 62.8505 16.2607 62.3465 16.2607C62.1971 16.2607 61.9918 16.2795 61.7865 16.2984C61.5625 16.336 61.3758 16.3737 61.1705 16.449C60.9838 16.5243 60.8158 16.6373 60.6851 16.7691C60.5545 16.9008 60.4798 17.0891 60.4798 17.3151C60.4798 17.5975 60.5731 17.8046 60.7598 17.974C60.9465 18.1435 61.1891 18.2753 61.5065 18.4071C61.8051 18.52 62.1598 18.6142 62.5518 18.6895C62.9438 18.7648 63.3545 18.8589 63.7651 18.9531C64.1758 19.0472 64.5678 19.1602 64.9598 19.292C65.3518 19.4238 65.7065 19.5932 66.0051 19.838C66.3038 20.0639 66.5651 20.3463 66.7518 20.6852C66.9385 21.0241 67.0318 21.4572 67.0318 21.9467C67.0318 22.5492 66.9011 23.0575 66.6211 23.4906C66.3411 23.9048 65.9865 24.2625 65.5571 24.5261C65.1278 24.7897 64.6238 24.978 64.1011 25.1098C63.5598 25.2227 63.0371 25.2981 62.5145 25.2981C61.8798 25.2981 61.2825 25.2227 60.7411 25.0721C60.1998 24.9215 59.7145 24.6956 59.3225 24.4132C58.9305 24.1119 58.6131 23.7542 58.3891 23.3023C58.1651 22.8693 58.0345 22.3421 58.0158 21.7208H60.2745V21.7396H60.2931ZM67.6665 14.7921H69.3651V11.7044H71.6051V14.7733H73.6211V16.449H71.6051V21.9091C71.6051 22.1538 71.6238 22.3421 71.6425 22.5304C71.6611 22.6998 71.7171 22.8504 71.7731 22.9634C71.8478 23.0764 71.9598 23.1705 72.0905 23.227C72.2398 23.2835 72.4265 23.3211 72.6878 23.3211C72.8371 23.3211 73.0051 23.3211 73.1545 23.3023C73.3038 23.2835 73.4718 23.2647 73.6211 23.227V24.978C73.3785 25.0156 73.1358 25.0345 72.8931 25.0533C72.6505 25.091 72.4265 25.091 72.1651 25.091C71.5678 25.091 71.1011 25.0345 70.7465 24.9215C70.3918 24.8085 70.1118 24.6391 69.9065 24.432C69.7011 24.206 69.5705 23.9425 69.4958 23.6224C69.4211 23.3023 69.3838 22.9069 69.3651 22.4927V16.4678H67.6665V14.7545V14.7921ZM75.1891 14.7921H77.2985V16.1854H77.3358C77.6531 15.5829 78.0825 15.1687 78.6425 14.9051C79.2025 14.6415 79.7998 14.5097 80.4718 14.5097C81.2745 14.5097 81.9651 14.6415 82.5625 14.9428C83.1598 15.2252 83.6451 15.6017 84.0371 16.1101C84.4291 16.5996 84.7278 17.1833 84.9145 17.8422C85.1011 18.5012 85.2131 19.2167 85.2131 19.951C85.2131 20.6476 85.1198 21.3066 84.9518 21.9467C84.7651 22.5869 84.5038 23.1705 84.1491 23.66C83.7945 24.1496 83.3465 24.5449 82.7865 24.8462C82.2265 25.1474 81.5918 25.2981 80.8451 25.2981C80.5278 25.2981 80.1918 25.2604 79.8745 25.2039C79.5571 25.1474 79.2398 25.0533 78.9411 24.9215C78.6425 24.7897 78.3625 24.6203 78.1198 24.4132C77.8585 24.206 77.6531 23.9613 77.4851 23.6977H77.4478V28.8H75.2078V14.7921H75.1891ZM83.0105 19.9133C83.0105 19.4614 82.9545 19.0096 82.8238 18.5765C82.7118 18.1435 82.5251 17.7669 82.2825 17.428C82.0398 17.0891 81.7411 16.8255 81.4051 16.6184C81.0505 16.4113 80.6398 16.3172 80.1918 16.3172C79.2585 16.3172 78.5491 16.6373 78.0638 17.2962C77.5971 17.9552 77.3545 18.8401 77.3545 19.9321C77.3545 20.4593 77.4105 20.93 77.5411 21.363C77.6718 21.7961 77.8398 22.1726 78.1011 22.4927C78.3438 22.8128 78.6425 23.0575 78.9971 23.2458C79.3518 23.4341 79.7438 23.5282 80.2105 23.5282C80.7331 23.5282 81.1438 23.4153 81.4985 23.2082C81.8531 23.0011 82.1331 22.7186 82.3758 22.3986C82.5998 22.0597 82.7678 21.6831 82.8611 21.2501C82.9545 20.7982 83.0105 20.3652 83.0105 19.9133ZM86.9491 10.8948H89.1891V13.0223H86.9491V10.8948ZM86.9491 14.7921H89.1891V25.0156H86.9491V14.7921ZM91.1865 10.8948H93.4265V25.0156H91.1865V10.8948ZM100.258 25.2981C99.4558 25.2981 98.7278 25.1663 98.0931 24.8838C97.4585 24.6014 96.9358 24.2437 96.4878 23.773C96.0585 23.3023 95.7225 22.7186 95.4985 22.0597C95.2745 21.4007 95.1438 20.6664 95.1438 19.8945C95.1438 19.1225 95.2558 18.4071 95.4985 17.7481C95.7225 17.0891 96.0585 16.5243 96.4878 16.0348C96.9171 15.5641 97.4585 15.1875 98.0931 14.9239C98.7278 14.6603 99.4558 14.5097 100.258 14.5097C101.061 14.5097 101.789 14.6415 102.424 14.9239C103.058 15.1875 103.581 15.5641 104.029 16.0348C104.458 16.5055 104.794 17.0891 105.018 17.7481C105.242 18.4071 105.373 19.1225 105.373 19.8945C105.373 20.6852 105.261 21.4007 105.018 22.0597C104.776 22.7186 104.458 23.2835 104.029 23.773C103.6 24.2437 103.058 24.6203 102.424 24.8838C101.789 25.1474 101.08 25.2981 100.258 25.2981ZM100.258 23.5094C100.744 23.5094 101.192 23.3964 101.546 23.1893C101.92 22.9822 102.2 22.6998 102.442 22.3609C102.685 22.022 102.853 21.6266 102.965 21.2124C103.077 20.7794 103.133 20.3463 103.133 19.8945C103.133 19.4614 103.077 19.0284 102.965 18.5954C102.853 18.1623 102.685 17.7858 102.442 17.4469C102.2 17.108 101.901 16.8444 101.546 16.6373C101.173 16.4302 100.744 16.3172 100.258 16.3172C99.7731 16.3172 99.3251 16.4302 98.9705 16.6373C98.5971 16.8444 98.3171 17.1268 98.0745 17.4469C97.8318 17.7858 97.6638 18.1623 97.5518 18.5954C97.4398 19.0284 97.3838 19.4614 97.3838 19.8945C97.3838 20.3463 97.4398 20.7794 97.5518 21.2124C97.6638 21.6455 97.8318 22.022 98.0745 22.3609C98.3171 22.6998 98.6158 22.9822 98.9705 23.1893C99.3438 23.4153 99.7731 23.5094 100.258 23.5094ZM106.045 14.7921H107.744V11.7044H109.984V14.7733H112V16.449H109.984V21.9091C109.984 22.1538 110.002 22.3421 110.021 22.5304C110.04 22.6998 110.096 22.8504 110.152 22.9634C110.226 23.0764 110.338 23.1705 110.469 23.227C110.618 23.2835 110.805 23.3211 111.066 23.3211C111.216 23.3211 111.384 23.3211 111.533 23.3023C111.682 23.2835 111.85 23.2647 112 23.227V24.978C111.757 25.0156 111.514 25.0345 111.272 25.0533C111.029 25.091 110.805 25.091 110.544 25.091C109.946 25.091 109.48 25.0345 109.125 24.9215C108.77 24.8085 108.49 24.6391 108.285 24.432C108.08 24.206 107.949 23.9425 107.874 23.6224C107.8 23.3023 107.762 22.9069 107.744 22.4927V16.4678H106.045V14.7545V14.7921Z" fill="black"/>
<path d="M26.824 10.8948H16.576L13.4213 1.06665L10.248 10.8948L0 10.8759L8.288 16.9573L5.11467 26.7855L13.4027 20.7041L21.6907 26.7855L18.536 16.9573L26.824 10.8948Z" fill="#00B67A"/>
<path d="M19.2454 19.179L18.5361 16.9573L13.4214 20.704L19.2454 19.179Z" fill="#005128"/>
</svg>
